<svg width="42" height="41" xmlns="http://www.w3.org/2000/svg" xmlns:xlink="http://www.w3.org/1999/xlink" overflow="hidden"><defs><clipPath id="clip0"><rect x="579" y="425" width="42" height="41"/></clipPath></defs><g clip-path="url(#clip0)" transform="translate(-579 -425)"><path d="M14.0938 13.1542C14.0938 15.277 12.3728 16.9979 10.25 16.9979 8.12716 16.9979 6.40625 15.277 6.40625 13.1542 6.40625 11.0313 8.12716 9.31042 10.25 9.31042 12.3728 9.31042 14.0938 11.0313 14.0938 13.1542Z" fill="#FFFFFF" transform="matrix(1.02439 0 0 1 579 425)"/><path d="M34.5938 13.1542C34.5938 15.277 32.8728 16.9979 30.75 16.9979 28.6272 16.9979 26.9062 15.277 26.9062 13.1542 26.9062 11.0313 28.6272 9.31042 30.75 9.31042 32.8728 9.31042 34.5938 11.0313 34.5938 13.1542Z" fill="#FFFFFF" transform="matrix(1.02439 0 0 1 579 425)"/><path d="M28.1875 31.6896 28.1875 27.8458C28.1875 27.2479 27.9313 26.65 27.4187 26.3083 26.3938 25.4542 25.0271 24.8563 23.6604 24.5146 22.7208 24.2583 21.6104 24.0021 20.5 24.0021 19.475 24.0021 18.3646 24.1729 17.3396 24.5146 15.9729 24.8563 14.6917 25.5396 13.5813 26.3083 13.0688 26.7354 12.8125 27.2479 12.8125 27.8458L12.8125 31.6896 28.1875 31.6896Z" fill="#FFFFFF" transform="matrix(1.02439 0 0 1 579 425)"/><path d="M24.3438 19.1333C24.3438 21.2562 22.6228 22.9771 20.5 22.9771 18.3772 22.9771 16.6562 21.2562 16.6562 19.1333 16.6562 17.0105 18.3772 15.2896 20.5 15.2896 22.6228 15.2896 24.3438 17.0105 24.3438 19.1333Z" fill="#FFFFFF" transform="matrix(1.02439 0 0 1 579 425)"/><path d="M37.6688 20.3292C36.6438 19.475 35.2771 18.8771 33.9104 18.5354 32.9708 18.2792 31.8604 18.0229 30.75 18.0229 29.725 18.0229 28.6146 18.1938 27.5896 18.5354 27.0771 18.7062 26.5646 18.8771 26.0521 19.1333L26.0521 19.2188C26.0521 20.6708 25.4542 22.0375 24.5146 22.9771 26.1375 23.4896 27.4187 24.1729 28.4438 24.9417 28.7 25.1979 28.9563 25.3688 29.1271 25.7104L38.4375 25.7104 38.4375 21.8667C38.4375 21.2687 38.1813 20.6708 37.6688 20.3292Z" fill="#FFFFFF" transform="matrix(1.02439 0 0 1 579 425)"/><path d="M12.5563 24.9417 12.5563 24.9417C13.7521 24.0875 15.1188 23.4042 16.4854 22.9771 15.5458 21.9521 14.9479 20.6708 14.9479 19.2188 14.9479 19.1333 14.9479 19.1333 14.9479 19.0479 14.4354 18.8771 13.9229 18.6208 13.4104 18.5354 12.4708 18.2792 11.3604 18.0229 10.25 18.0229 9.225 18.0229 8.11458 18.1938 7.08958 18.5354 5.72292 18.9625 4.44167 19.5604 3.33125 20.3292 2.81875 20.6708 2.5625 21.2687 2.5625 21.8667L2.5625 25.7104 11.7875 25.7104C12.0438 25.3688 12.2146 25.1979 12.5563 24.9417Z" fill="#FFFFFF" transform="matrix(1.02439 0 0 1 579 425)"/></g></svg>