<svg width="41" height="42" xmlns="http://www.w3.org/2000/svg" xmlns:xlink="http://www.w3.org/1999/xlink" overflow="hidden"><defs><clipPath id="clip0"><rect x="607" y="85" width="41" height="42"/></clipPath></defs><g clip-path="url(#clip0)" transform="translate(-607 -85)"><path d="M29.0417 12.8979C28.0167 12.8979 27.1625 12.0438 27.2052 10.976 27.2052 9.95104 28.0594 9.09688 29.0844 9.09688 30.1094 9.09688 30.9635 9.95104 30.9635 10.976 30.9635 11.4885 30.75 11.9583 30.4083 12.3 30.024 12.6844 29.5542 12.8979 29.0417 12.8979ZM27.2052 6.96146C26.2656 7.30313 25.5396 8.02917 25.0698 8.88333 24.4719 10.0365 24.3865 11.3604 24.8563 12.5563L26.9062 16.9979 28.2729 19.8167C28.401 20.1156 28.7 20.2865 29.0417 20.2865 29.3833 20.2865 29.6823 20.1156 29.8104 19.8167L31.1771 16.9979 33.2271 12.599C33.4406 12.0865 33.526 11.5312 33.526 10.976 33.526 7.98646 30.451 5.72292 27.2052 6.96146Z" fill="#FFFFFF" transform="matrix(1 0 0 1.02439 607 85)"/><path d="M19.6458 31.0917 12.8125 27.675 12.8125 13.7521 19.6458 17.1688 19.6458 31.0917ZM11.1042 27.675 5.97917 30.2375 5.97917 16.3146 11.1042 13.7521 11.1042 27.675ZM34.7646 13.325 34.7646 13.325 33.6969 15.6312 35.0208 16.3146 35.0208 30.2375 29.8958 27.675 29.8958 21.9948 28.1875 21.9948 28.1875 27.675 21.3542 31.0917 21.3542 17.1688 24.3865 15.6312 23.3188 13.325 20.5 14.7344 11.9583 10.4635 3.41667 14.7344 3.41667 34.3802 11.9583 30.1094 20.5 34.3802 29.0417 30.1094 37.5833 34.3802 37.5833 14.7344 34.7646 13.325Z" fill="#FFFFFF" transform="matrix(1 0 0 1.02439 607 85)"/></g></svg>