<svg width="41" height="42" xmlns="http://www.w3.org/2000/svg" xmlns:xlink="http://www.w3.org/1999/xlink" overflow="hidden"><defs><clipPath id="clip0"><rect x="573" y="303" width="41" height="42"/></clipPath></defs><g clip-path="url(#clip0)" transform="translate(-573 -303)"><path d="M20.5 6.83333C12.9406 6.83333 6.83333 12.9406 6.83333 20.5 6.83333 28.0594 12.9406 34.1667 20.5 34.1667 28.0594 34.1667 34.1667 28.0594 34.1667 20.5 34.1667 12.9406 28.0594 6.83333 20.5 6.83333ZM20.5 36.7292C11.5312 36.7292 4.27083 29.4688 4.27083 20.5 4.27083 11.5312 11.5312 4.27083 20.5 4.27083 29.4688 4.27083 36.7292 11.5312 36.7292 20.5 36.7292 29.4688 29.4688 36.7292 20.5 36.7292Z" fill="#FFFFFF" transform="matrix(1 0 0 1.02439 573 303)"/><path d="M29.0417 17.0833 23.9167 17.0833 23.9167 11.9583C23.9167 11.0188 23.1479 10.25 22.2083 10.25L18.7917 10.25C17.8521 10.25 17.0833 11.0188 17.0833 11.9583L17.0833 17.0833 11.9583 17.0833C11.0188 17.0833 10.25 17.8521 10.25 18.7917L10.25 22.2083C10.25 23.1479 11.0188 23.9167 11.9583 23.9167L17.0833 23.9167 17.0833 29.0417C17.0833 29.9812 17.8521 30.75 18.7917 30.75L22.2083 30.75C23.1479 30.75 23.9167 29.9812 23.9167 29.0417L23.9167 23.9167 29.0417 23.9167C29.9812 23.9167 30.75 23.1479 30.75 22.2083L30.75 18.7917C30.75 17.8521 29.9812 17.0833 29.0417 17.0833Z" fill="#FFFFFF" transform="matrix(1 0 0 1.02439 573 303)"/></g></svg>