<svg width="41" height="42" xmlns="http://www.w3.org/2000/svg" xmlns:xlink="http://www.w3.org/1999/xlink" overflow="hidden"><defs><clipPath id="clip0"><rect x="578" y="216" width="41" height="42"/></clipPath></defs><g clip-path="url(#clip0)" transform="translate(-578 -216)"><path d="M31.6042 22.187 35.9177 17.8734 38.4375 20.3932 38.4375 13.5599 31.6042 13.5599 34.124 16.0797 29.8958 20.3078 22.6354 27.5682 16.2292 21.162 2.94688 34.4443 4.74063 36.238 16.2292 24.7495 22.6354 31.1557 31.6042 22.187Z" fill="#FFFFFF" transform="matrix(1 0 0 1.02439 578 216)"/><path d="M9.82292 8.54167C9.82292 9.72102 8.86686 10.6771 7.6875 10.6771 6.50814 10.6771 5.55208 9.72102 5.55208 8.54167 5.55208 7.36231 6.50814 6.40625 7.6875 6.40625 8.86686 6.40625 9.82292 7.36231 9.82292 8.54167Z" fill="#FFFFFF" transform="matrix(1 0 0 1.02439 578 216)"/><path d="M28.2601 19.522 28.6872 19.0949 29.6652 18.1169 28.4779 12.7783C28.4416 12.5892 28.3385 12.4195 28.1875 12.3 27.676 11.8986 27.0977 11.5907 26.4792 11.3903 25.3634 11.0089 24.1526 11.0089 23.0369 11.3903 22.4185 11.5912 21.8403 11.8991 21.3285 12.3 21.1808 12.4223 21.0785 12.5908 21.0381 12.7783L20.5 15.281 20.5 15.281 19.9405 12.7783C19.9014 12.5893 19.7971 12.42 19.6458 12.3 19.1343 11.8986 18.556 11.5907 17.9375 11.3903 16.1841 10.8244 14.2641 11.1652 12.8125 12.3 12.6647 12.4223 12.5624 12.5908 12.5221 12.7783L11.9583 15.1999C11.9583 15.1999 11.9583 15.1999 11.9583 15.1999L11.4031 12.7783C11.3605 12.5896 11.2551 12.421 11.1042 12.3 10.5924 11.8991 10.0142 11.5912 9.39583 11.3903 8.28008 11.0089 7.0693 11.0089 5.95354 11.3903 5.3356 11.5921 4.75754 11.8999 4.24521 12.3 4.09744 12.4223 3.99514 12.5908 3.95479 12.7783L2.59667 18.9796C2.475 19.4573 2.76363 19.9432 3.24135 20.0649 3.25276 20.0678 3.26422 20.0705 3.27573 20.0729 3.32261 20.0771 3.36978 20.0771 3.41667 20.0729 3.8251 20.0824 4.18311 19.8014 4.27083 19.4024L5.55208 13.6667 5.55208 13.6667 5.55208 16.699 4.27083 23.0625 5.55208 23.0625 5.55208 29.4218 7.26042 27.7134 7.26042 23.0625 8.11458 23.0625 8.11458 26.8593 9.82292 25.1509 9.82292 23.0625 11.1042 23.0625 9.82292 16.7032 9.82292 13.7136 9.82292 13.7136 11.1042 19.2914C11.142 19.7345 11.5136 20.0745 11.9583 20.0729L11.9583 20.0729C12.3572 20.0703 12.7011 19.7919 12.7869 19.4024L12.8125 19.2188 14.0596 13.7393C14.0596 13.7393 14.0596 13.7393 14.0596 13.7393L14.0596 20.9015 15.0034 19.9533C15.6702 19.2858 16.7519 19.2852 17.4194 19.952 17.4198 19.9524 17.4203 19.9529 17.4207 19.9533L18.3646 20.863 18.3646 13.7435C18.3646 13.7435 18.3646 13.7435 18.3646 13.7435L19.6458 19.4067C19.7353 19.804 20.0929 20.0829 20.5 20.0729L20.5 20.0729C20.9005 20.0723 21.2467 19.7935 21.3328 19.4024L22.6141 13.7393C22.6141 13.7393 22.6141 13.7393 22.6141 13.7393L22.6141 25.1424 22.6141 25.1424 24.3224 23.4341 24.3224 20.5 25.1766 20.5 25.1766 22.597 26.8849 20.8886 26.8849 13.7435C26.8849 13.7435 26.8849 13.7435 26.8849 13.7435L28.2302 19.5263Z" fill="#FFFFFF" transform="matrix(1 0 0 1.02439 578 216)"/><path d="M26.902 8.54167C26.902 9.72102 25.9459 10.6771 24.7666 10.6771 23.5872 10.6771 22.6311 9.72102 22.6311 8.54167 22.6311 7.36231 23.5872 6.40625 24.7666 6.40625 25.9459 6.40625 26.902 7.36231 26.902 8.54167Z" fill="#FFFFFF" transform="matrix(1 0 0 1.02439 578 216)"/><path d="M18.3475 8.54167C18.3475 9.72102 17.3914 10.6771 16.2121 10.6771 15.0327 10.6771 14.0767 9.72102 14.0767 8.54167 14.0767 7.36231 15.0327 6.40625 16.2121 6.40625 17.3914 6.40625 18.3475 7.36231 18.3475 8.54167Z" fill="#FFFFFF" transform="matrix(1 0 0 1.02439 578 216)"/></g></svg>