<svg width="41" height="41" xmlns="http://www.w3.org/2000/svg" xmlns:xlink="http://www.w3.org/1999/xlink" overflow="hidden"><defs><clipPath id="clip0"><rect x="574" y="394" width="41" height="41"/></clipPath></defs><g clip-path="url(#clip0)" transform="translate(-574 -394)"><path d="M593.479 423.101C593.479 424.172 592.611 425.04 591.54 425.04 590.469 425.04 589.601 424.172 589.601 423.101 589.601 422.031 590.469 421.163 591.54 421.163 592.611 421.163 593.479 422.031 593.479 423.101Z" fill="#FFFFFF"/><path d="M595.354 429.448 595.354 427.509C595.348 427.207 595.207 426.923 594.97 426.736 594.413 426.306 593.775 425.993 593.095 425.813 592.581 425.656 592.047 425.575 591.51 425.574 590.974 425.583 590.441 425.663 589.926 425.813 589.253 426.013 588.619 426.325 588.051 426.736 587.814 426.923 587.673 427.207 587.667 427.509L587.667 429.448Z" fill="#FFFFFF"/><path d="M601.961 423.101C601.961 424.172 601.093 425.04 600.022 425.04 598.951 425.04 598.083 424.172 598.083 423.101 598.083 422.031 598.951 421.163 600.022 421.163 601.093 421.163 601.961 422.031 601.961 423.101Z" fill="#FFFFFF"/><path d="M603.896 429.448 603.896 427.509C603.89 427.207 603.749 426.923 603.511 426.736 602.954 426.306 602.317 425.993 601.637 425.813 601.123 425.656 600.589 425.575 600.052 425.574 599.516 425.583 598.983 425.663 598.468 425.813 597.795 426.013 597.161 426.325 596.593 426.736 596.356 426.923 596.215 427.207 596.208 427.509L596.208 429.448Z" fill="#FFFFFF"/><path d="M610.503 423.101C610.503 424.172 609.635 425.04 608.564 425.04 607.493 425.04 606.625 424.172 606.625 423.101 606.625 422.031 607.493 421.163 608.564 421.163 609.635 421.163 610.503 422.031 610.503 423.101Z" fill="#FFFFFF"/><path d="M612.438 429.448 612.438 427.509C612.431 427.207 612.29 426.923 612.053 426.736 611.496 426.306 610.858 425.993 610.178 425.813 609.665 425.656 609.131 425.575 608.594 425.574 608.057 425.583 607.524 425.663 607.009 425.813 606.337 426.013 605.703 426.325 605.134 426.736 604.897 426.923 604.756 427.207 604.75 427.509L604.75 429.448Z" fill="#FFFFFF"/><path d="M585.711 405.172C585.711 406.574 584.575 407.709 583.174 407.709 581.773 407.709 580.637 406.574 580.637 405.172 580.637 403.771 581.773 402.636 583.174 402.636 584.575 402.636 585.711 403.771 585.711 405.172Z" fill="#FFFFFF"/><path d="M598.134 404.194C597.883 403.947 597.48 403.947 597.229 404.194L591.711 409.712C591.27 409.588 590.796 409.708 590.468 410.028 590.379 410.118 588.786 412.723 588.786 412.723L588.307 410.686C588.244 410.423 588.113 410.182 587.927 409.986 587.14 409.349 586.234 408.876 585.262 408.593 584.575 408.446 583.876 408.362 583.174 408.341 582.465 408.352 581.761 408.459 581.081 408.658 580.1 408.915 579.191 409.391 578.42 410.05 578.233 410.245 578.102 410.487 578.04 410.75 578.04 410.75 576.199 418.48 576.199 418.609 576.199 419.316 576.773 419.89 577.481 419.89 578.048 419.875 578.538 419.49 578.685 418.942L580.018 413.428 580.018 431.156 582.542 431.156 582.542 419.749 583.823 419.749 583.823 431.156 586.343 431.156 586.343 413.347 586.812 415.354C586.845 415.493 586.937 415.61 587.064 415.674 587.556 416.051 588.154 416.262 588.773 416.277 589.176 416.333 589.575 416.152 589.798 415.811L592.403 411.54C592.57 411.278 592.632 410.962 592.578 410.656L598.13 405.104C598.382 404.854 598.384 404.447 598.134 404.194Z" fill="#FFFFFF"/><path d="M606.885 398.271 585.958 398.271C585.015 398.271 584.25 399.036 584.25 399.979L584.25 401.517C584.903 401.694 585.494 402.049 585.958 402.542L585.958 399.979 606.885 399.979 606.885 414.073 592.309 414.073 591.267 415.781 606.885 415.781C607.829 415.781 608.594 415.016 608.594 414.073L608.594 399.979C608.594 399.036 607.829 398.271 606.885 398.271Z" fill="#FFFFFF"/></g></svg>