<svg width="41" height="42" xmlns="http://www.w3.org/2000/svg" xmlns:xlink="http://www.w3.org/1999/xlink" overflow="hidden"><defs><clipPath id="clip0"><rect x="570" y="489" width="41" height="42"/></clipPath></defs><g clip-path="url(#clip0)" transform="translate(-570 -489)"><path d="M19.6458 5.97917 21.3542 5.97917 21.3542 11.1042 19.6458 11.1042Z" fill="#FFFFFF" transform="matrix(1 0 0 1.02439 570 489)"/><path d="M28.8705 9.29216 33.7543 9.29216 33.7543 11.0209 28.8705 11.0209Z" fill="#FFFFFF" transform="matrix(-0.69874 0.715782 -0.69874 -0.715782 629.939 484.16)"/><path d="M9.29216 7.69304 11.0209 7.69304 11.0209 12.5768 9.29216 12.5768Z" fill="#FFFFFF" transform="matrix(-0.69874 0.715782 -0.69874 -0.715782 594.193 499.266)"/><path d="M30.75 17.9375 35.0208 17.9375 35.0208 19.6458 30.75 19.6458Z" fill="#FFFFFF" transform="matrix(1 0 0 1.02439 570 489)"/><path d="M5.97917 17.9375 10.25 17.9375 10.25 19.6458 5.97917 19.6458Z" fill="#FFFFFF" transform="matrix(1 0 0 1.02439 570 489)"/><path d="M13.6667 29.8958 15.1188 15.375 25.8385 15.375 27.3333 29.8958 13.6667 29.8958ZM32.4583 29.8958 29.8958 29.8958 28.3583 14.35C28.2729 13.4958 27.5469 12.8125 26.65 12.8125L14.35 12.8125C13.4531 12.8125 12.7271 13.4958 12.6417 14.35L11.1042 29.8958 8.54167 29.8958 8.54167 32.4583 5.97917 32.4583 5.97917 35.0208 35.0208 35.0208 35.0208 32.4583 32.4583 32.4583 32.4583 29.8958Z" fill="#FFFFFF" transform="matrix(1 0 0 1.02439 570 489)"/><path d="M22.55 17.0833 23.6177 28.1875 25.3688 28.1875 24.2583 17.0833Z" fill="#FFFFFF" transform="matrix(1 0 0 1.02439 570 489)"/></g></svg>