<svg width="42" height="41" xmlns="http://www.w3.org/2000/svg" xmlns:xlink="http://www.w3.org/1999/xlink" overflow="hidden"><defs><clipPath id="clip0"><rect x="574" y="50" width="42" height="41"/></clipPath></defs><g clip-path="url(#clip0)" transform="translate(-574 -50)"><path d="M23.0625 11.3177 21.6958 10.2927C21.525 10.1646 21.3969 9.99375 21.3115 9.78021L21.9094 9.90833C21.9521 9.90833 21.9948 9.90833 22.0375 9.90833 22.3365 9.90833 22.5927 9.69479 22.6781 9.39583 22.7635 9.05417 22.5073 8.7125 22.1656 8.62708L21.6958 8.54167C21.824 8.45625 21.9948 8.37083 22.1229 8.37083 22.1656 8.37083 22.251 8.37083 22.2938 8.37083 22.5073 8.37083 22.7208 8.45625 22.9344 8.58438L24.301 9.60938C24.6854 9.90833 24.8135 10.3781 24.6854 10.8052L24.6 10.6344C24.4292 10.3354 24.0448 10.2073 23.7458 10.3354 23.4469 10.5063 23.3188 10.8906 23.4469 11.1896L23.6177 11.5312C23.4469 11.4885 23.2333 11.4458 23.0625 11.3177ZM25.7104 16.101C25.4969 15.674 25.6677 15.1615 26.0948 14.9479 26.4792 14.7344 26.949 14.9052 27.2052 15.2469 27.4187 15.674 27.2479 16.1865 26.8208 16.4 26.4365 16.6135 25.9667 16.4854 25.7104 16.101ZM17.2542 9.26771 15.5458 9.35312C15.375 9.35312 15.2042 9.31042 15.076 9.26771L15.4604 9.05417C15.7594 8.88333 15.8875 8.49896 15.674 8.15729 15.5031 7.85833 15.1188 7.73021 14.7771 7.94375L14.4354 8.11458C14.4781 7.90104 14.5635 7.6875 14.6917 7.55938 14.8625 7.34583 15.1615 7.21771 15.4177 7.21771L17.126 7.13229 17.1688 7.13229C17.425 7.13229 17.6813 7.21771 17.8948 7.38854 18.0229 7.51667 18.151 7.6875 18.1938 7.85833L17.6385 7.73021C17.2969 7.64479 16.9552 7.90104 16.8698 8.24271 16.7844 8.58438 17.0406 8.92604 17.3823 9.01146L17.724 9.09688C17.5958 9.18229 17.425 9.225 17.2542 9.26771ZM11.7875 12.5135C11.7448 12.8125 11.574 13.0688 11.3177 13.2396L11.3177 12.5563C11.3177 12.2146 11.0188 11.9156 10.6771 11.9156 10.3354 11.9156 10.0365 12.2146 10.0365 12.5563L10.0365 13.1542C9.78021 12.9406 9.60938 12.5563 9.65208 12.2146L9.90833 10.5063C9.95104 10.2073 10.0792 9.99375 10.3354 9.82292 10.549 9.65208 10.8479 9.56667 11.1469 9.60938 11.3177 9.65208 11.4885 9.69479 11.6167 9.78021L11.1042 10.0792C10.8052 10.25 10.6771 10.6344 10.8906 10.976 11.0188 11.1896 11.2323 11.275 11.4458 11.275 11.574 11.275 11.6594 11.2323 11.7875 11.1896L12.0438 11.0188 11.7875 12.5135ZM11.5312 17.9375C11.5312 18.4073 11.1469 18.7917 10.6771 18.7917 10.2073 18.7917 9.82292 18.4073 9.82292 17.9375 9.82292 17.4677 10.2073 17.0833 10.6771 17.0833 11.1469 17.0833 11.5312 17.4677 11.5312 17.9375ZM37.925 19.3896C36.3448 16.2719 33.099 14.5208 29.8104 14.7344L29.1698 13.4104C29.1271 13.2823 29.0417 13.1969 28.9563 13.1115 28.4865 12.4281 27.5469 12.1719 26.7781 12.5563L25.8385 13.026 25.326 12.0438C25.4115 11.9583 25.4969 11.8729 25.5823 11.7875 26.351 10.7198 26.0948 9.26771 25.0698 8.49896L23.7031 7.47396C23.1906 7.08958 22.5927 6.96146 21.9521 7.04688 21.3115 7.13229 20.799 7.47396 20.4146 7.98646 20.3719 8.07187 20.3292 8.15729 20.2865 8.2L19.5177 8.11458C19.5177 8.07187 19.5177 8.07187 19.5177 8.02917 19.475 7.38854 19.2188 6.83333 18.749 6.40625 18.2792 5.97917 17.6813 5.76562 17.0406 5.80833L15.3323 5.89375C14.051 5.97917 13.026 7.08958 13.1115 8.37083 13.1115 8.54167 13.1542 8.66979 13.1969 8.84063L12.7271 9.13958C12.3427 8.7125 11.8729 8.45625 11.3177 8.37083 10.6771 8.28542 10.0792 8.45625 9.56667 8.79792 9.05417 9.18229 8.75521 9.7375 8.66979 10.3354L8.41354 12.0438C8.32812 12.6844 8.49896 13.2823 8.84063 13.7948 9.13958 14.1792 9.56667 14.4781 10.0365 14.6063L10.0365 15.375 8.96875 15.375C8.02917 15.375 7.26042 16.1437 7.26042 17.0833L7.26042 18.6635C4.22813 19.9875 2.13542 22.9771 2.13542 26.4792 2.13542 31.1771 5.97917 35.0208 10.6771 35.0208 12.5563 35.0208 14.3073 34.3802 15.7167 33.3552L13.8802 31.5188C12.9833 32.1167 11.8729 32.4583 10.6771 32.4583 7.38854 32.4583 4.69792 29.7677 4.69792 26.4792 4.69792 23.1906 7.38854 20.5 10.6771 20.5 13.9656 20.5 16.6562 23.1906 16.6562 26.4792 16.6562 27.675 16.3146 28.7854 15.7167 29.6823L16.9552 30.9208C17.8521 29.6823 18.3646 28.1448 18.3646 26.4792 18.3646 23.4896 16.6135 20.8844 14.0938 19.6031L14.0938 17.0833C14.0938 16.1437 13.325 15.375 12.3854 15.375L11.3177 15.375 11.3177 14.649C12.2146 14.4354 12.9406 13.6667 13.0688 12.7271L13.325 11.0188C13.3677 10.7625 13.325 10.549 13.325 10.2927L13.9229 9.95104C13.9229 9.95104 13.9656 9.99375 13.9656 10.0365 14.3927 10.4208 14.9479 10.6344 15.5458 10.6344 15.5885 10.6344 15.6312 10.6344 15.674 10.6344L17.3823 10.549C18.0229 10.5063 18.5781 10.25 19.0052 9.78021 19.1333 9.65208 19.2188 9.52396 19.3042 9.39583L20.0729 9.56667C20.0729 9.65208 20.0729 9.7375 20.0729 9.82292 20.1583 10.4635 20.5 10.976 21.0125 11.3604L22.3792 12.3854C22.8063 12.6844 23.276 12.8552 23.7458 12.8552 23.9167 12.8552 24.1302 12.8125 24.301 12.7698L24.7708 13.7094 23.8313 14.1792C22.9771 14.6063 22.6354 15.6312 23.0625 16.4854L23.9167 18.1938 24.1729 18.749C23.2333 20.0302 22.6781 21.6104 22.6354 23.1906 22.5927 24.4292 22.849 25.6677 23.4469 26.8635 24.1729 28.3583 25.3688 29.4688 26.6927 30.1948L26.7354 30.1094 27.2906 28.4438C26.351 27.8885 25.5396 27.0771 24.9844 26.0094 24.5146 25.1125 24.301 24.1302 24.3438 23.1906 24.4292 21.0552 25.625 19.0479 27.6323 18.0656 30.5792 16.5708 34.1667 17.8094 35.6615 20.7563 36.0885 21.6531 36.3021 22.5927 36.3021 23.5323 36.2167 25.625 35.0208 27.6323 33.0563 28.6573 31.9885 29.2125 30.8354 29.3833 29.7677 29.2552L29.725 29.3406 28.9135 31.8177C30.6646 32.1167 32.501 31.9031 34.1667 31.049 37.1135 29.5969 38.8219 26.65 38.8646 23.6177 38.9073 22.1656 38.6083 20.7563 37.925 19.3896Z" fill="#FFFFFF" transform="matrix(1.02439 0 0 1 574 50)"/></g></svg>