<svg width="41" height="41" xmlns="http://www.w3.org/2000/svg" xmlns:xlink="http://www.w3.org/1999/xlink" overflow="hidden"><defs><clipPath id="clip0"><rect x="574" y="368" width="41" height="41"/></clipPath></defs><g clip-path="url(#clip0)" transform="translate(-574 -368)"><path d="M594.501 373.125 594.5 373.125 576.563 390.188 578.502 391.845 594.5 376.648 594.501 376.648 610.499 391.845 612.438 390.188 594.501 373.125Z" fill="#FFFFFF"/><path d="M594.5 379.004 581.688 391.176 581.688 403.875 607.312 403.875 607.312 391.175ZM594.5 400.258C594.5 400.258 588.521 395.685 588.521 391.992 588.521 389.53 592.284 386.892 594.5 391.289 596.716 386.892 600.479 389.53 600.479 391.992 600.479 395.685 594.5 400.258 594.5 400.258Z" fill="#FFFFFF"/></g></svg>