<svg width="41" height="42" xmlns="http://www.w3.org/2000/svg" xmlns:xlink="http://www.w3.org/1999/xlink" overflow="hidden"><defs><clipPath id="clip0"><rect x="576" y="212" width="41" height="42"/></clipPath></defs><g clip-path="url(#clip0)" transform="translate(-576 -212)"><path d="M33.7396 15.375C34.2113 15.375 34.5938 14.9926 34.5938 14.5208L34.5938 12.3854C34.5938 12.0505 34.3981 11.7464 34.0932 11.6077L24.6974 7.33686C24.6327 7.30842 24.5647 7.28822 24.4949 7.27665L24.3382 5.88393C24.3224 5.74205 24.2713 5.60637 24.1896 5.4893L21.2 1.21847C20.9296 0.831877 20.3971 0.737637 20.0105 1.00799 19.9286 1.06529 19.8573 1.13653 19.8 1.21847L16.8104 5.4893C16.7287 5.60637 16.6776 5.74205 16.6618 5.88393L16.5051 7.27665C16.4353 7.28813 16.3673 7.30838 16.3026 7.33686L6.90679 11.6077C6.6019 11.7464 6.40616 12.0505 6.40625 12.3854L6.40625 14.5208C6.40625 14.9926 6.78866 15.375 7.26042 15.375 7.73217 15.375 8.11458 14.9926 8.11458 14.5208L8.11458 13.2396 15.8367 13.2396 15.3981 17.1448 6.9085 21.0035C6.60292 21.1417 6.40646 21.4459 6.40625 21.7812L6.40625 23.9167C6.40625 24.3884 6.78866 24.7708 7.26042 24.7708 7.73217 24.7708 8.11458 24.3884 8.11458 23.9167L8.11458 22.6354 14.7809 22.6354 14.5409 24.7738 8.89273 38.9073C8.71763 39.3453 8.93074 39.8424 9.36876 40.0175 9.57862 40.1014 9.81318 40.0987 10.0211 40.01L20.4791 35.5508 30.9994 40.0403C31.4332 40.2258 31.9352 40.0245 32.1206 39.5907 32.2095 39.3826 32.2122 39.1477 32.1282 38.9376L26.4625 24.7743 26.2229 22.6354 32.8854 22.6354 32.8854 23.9167C32.8854 24.3884 33.2678 24.7708 33.7396 24.7708 34.2113 24.7708 34.5938 24.3884 34.5938 23.9167L34.5938 21.7812C34.5938 21.4463 34.3981 21.1422 34.0932 21.0035L25.6054 17.1448 25.1663 13.2396 32.8854 13.2396 32.8854 14.5208C32.8854 14.9926 33.2678 15.375 33.7396 15.375ZM18.0357 8.96875 22.9677 8.96875 23.2555 11.5312 17.7462 11.5312ZM20.5 3.198 22.6649 6.29051 22.7755 7.26042 18.2275 7.26042 18.3368 6.29051ZM11.2054 11.5312 16.2877 9.22073 16.0289 11.5312ZM24.3113 20.9271 16.6921 20.9271 16.98 18.3646 24.0234 18.3646ZM11.2054 20.9271 15.1773 19.1222 14.9731 20.9271ZM25.2406 26.322 26.4147 29.2552 22.5662 27.5255ZM26.4535 31.1455 20.4791 33.6935 14.5097 31.1455 20.4825 28.4613ZM14.5977 29.2326 15.7547 26.3369 18.3975 27.5247ZM11.2408 37.632 13.2972 32.4861 18.3009 34.6215ZM22.6551 34.6224 27.7015 32.4711 29.7775 37.6619ZM24.7315 24.6782 20.4812 26.5885 16.2676 24.6944 16.4999 22.6354 24.5035 22.6354ZM29.798 20.9271 26.0303 20.9271 25.8274 19.1222ZM23.8313 16.6562 17.1717 16.6562 17.5561 13.2396 23.4469 13.2396ZM24.7149 9.22073 29.798 11.5312 24.9746 11.5312Z" fill="#FFFFFF" transform="matrix(1 0 0 1.02439 576 212)"/></g></svg>