<svg width="42" height="42" xmlns="http://www.w3.org/2000/svg" xmlns:xlink="http://www.w3.org/1999/xlink" overflow="hidden"><defs><clipPath id="clip0"><rect x="571" y="328" width="42" height="42"/></clipPath></defs><g clip-path="url(#clip0)" transform="translate(-571 -328)"><path d="M611.502 359.938 611.502 355.889 604.131 339.511 585.012 339.511 577.64 355.889 577.64 359.938 594.133 359.938 594.133 364.75 588.615 364.75 588.615 365.625 600.526 365.625 600.526 364.75 595.008 364.75 595.008 359.938ZM598.158 344.967 598.808 350.05 590.334 350.05 590.985 344.967ZM591.098 344.092 591.573 340.386 597.569 340.386 598.044 344.092ZM607.914 350.05 599.689 350.05 599.039 344.967 605.627 344.967ZM589.451 350.05 581.226 350.05 583.513 344.968 590.103 344.968ZM589.339 350.925 588.746 355.546 578.754 355.546 580.834 350.925ZM590.221 350.925 598.92 350.925 599.513 355.548 589.628 355.548ZM600.395 355.546 599.802 350.925 608.307 350.925 610.388 355.548ZM605.233 344.092 598.926 344.092 598.451 340.386 603.565 340.386ZM585.576 340.386 590.69 340.386 590.215 344.092 583.908 344.092ZM578.515 356.421 610.627 356.421 610.627 359.062 578.515 359.062Z" fill="#FFFFFF"/><path d="M578 330.625 578.875 330.625 578.875 332.812 578 332.812Z" fill="#FFFFFF"/><path d="M578 339.812 578.875 339.812 578.875 342 578 342Z" fill="#FFFFFF"/><path d="M581.938 335.875 584.125 335.875 584.125 336.75 581.938 336.75Z" fill="#FFFFFF"/><path d="M572.75 335.875 574.938 335.875 574.938 336.75 572.75 336.75Z" fill="#FFFFFF"/><path d="M580.603 333.528 582.15 331.981 582.769 332.6 581.222 334.147Z" fill="#FFFFFF"/><path d="M574.107 340.025 575.653 338.478 576.272 339.097 574.725 340.644Z" fill="#FFFFFF"/><path d="M574.107 332.6 574.725 331.981 576.272 333.528 575.654 334.147Z" fill="#FFFFFF"/><path d="M580.603 339.097 581.222 338.478 582.769 340.025 582.15 340.644Z" fill="#FFFFFF"/><path d="M581.062 336.312C581.062 334.863 579.887 333.688 578.438 333.688 576.988 333.688 575.812 334.863 575.812 336.312 575.812 337.762 576.988 338.938 578.438 338.938 579.887 338.936 581.061 337.762 581.062 336.312ZM576.688 336.312C576.688 335.346 577.471 334.562 578.438 334.562 579.404 334.562 580.188 335.346 580.188 336.312 580.188 337.279 579.404 338.062 578.438 338.062 577.471 338.062 576.688 337.279 576.688 336.312Z" fill="#FFFFFF"/></g></svg>