<svg width="41" height="42" xmlns="http://www.w3.org/2000/svg" xmlns:xlink="http://www.w3.org/1999/xlink" overflow="hidden"><defs><clipPath id="clip0"><rect x="618" y="357" width="41" height="42"/></clipPath></defs><g clip-path="url(#clip0)" transform="translate(-618 -357)"><path d="M12.3854 11.1042C13.1115 11.1042 13.6667 10.549 13.6667 9.82292L13.6667 7.26042C13.6667 6.53438 13.1115 5.97917 12.3854 5.97917 11.6594 5.97917 11.1042 6.53438 11.1042 7.26042L11.1042 9.82292C11.1042 10.549 11.6594 11.1042 12.3854 11.1042Z" fill="#FFFFFF" transform="matrix(1 0 0 1.02439 618 357)"/><path d="M8.54167 29.0417 15.375 29.0417 15.375 32.4583 8.54167 32.4583 8.54167 29.0417ZM8.54167 23.9167 15.375 23.9167 15.375 27.3333 8.54167 27.3333 8.54167 23.9167ZM8.54167 18.7917 15.375 18.7917 15.375 22.2083 8.54167 22.2083 8.54167 18.7917ZM23.9167 18.7917 23.9167 22.2083 17.0833 22.2083 17.0833 18.7917 23.9167 18.7917ZM32.4583 18.7917 32.4583 22.2083 25.625 22.2083 25.625 18.7917 32.4583 18.7917ZM32.4583 27.3333 25.625 27.3333 25.625 23.9167 32.4583 23.9167 32.4583 27.3333ZM32.4583 32.4583 25.625 32.4583 25.625 29.0417 32.4583 29.0417 32.4583 32.4583ZM17.0833 27.3333 17.0833 23.9167 23.9167 23.9167 23.9167 27.3333 17.0833 27.3333ZM17.0833 32.4583 17.0833 29.0417 23.9167 29.0417 23.9167 32.4583 17.0833 32.4583ZM5.97917 35.0208 35.0208 35.0208 35.0208 16.2292 5.97917 16.2292 5.97917 35.0208Z" fill="#FFFFFF" transform="matrix(1 0 0 1.02439 618 357)"/><path d="M28.6146 11.1042C29.3406 11.1042 29.8958 10.549 29.8958 9.82292L29.8958 7.26042C29.8958 6.53438 29.3406 5.97917 28.6146 5.97917 27.8885 5.97917 27.3333 6.53438 27.3333 7.26042L27.3333 9.82292C27.3333 10.549 27.8885 11.1042 28.6146 11.1042Z" fill="#FFFFFF" transform="matrix(1 0 0 1.02439 618 357)"/><path d="M31.6042 8.54167 31.6042 9.82292C31.6042 11.4885 30.2802 12.8125 28.6146 12.8125 26.949 12.8125 25.625 11.4885 25.625 9.82292L25.625 8.54167 15.375 8.54167 15.375 9.82292C15.375 11.4885 14.051 12.8125 12.3854 12.8125 10.7198 12.8125 9.39583 11.4885 9.39583 9.82292L9.39583 8.54167 5.97917 8.54167 5.97917 14.5208 35.0208 14.5208 35.0208 8.54167 31.6042 8.54167Z" fill="#FFFFFF" transform="matrix(1 0 0 1.02439 618 357)"/></g></svg>