<svg width="41" height="41" xmlns="http://www.w3.org/2000/svg" xmlns:xlink="http://www.w3.org/1999/xlink" overflow="hidden"><defs><clipPath id="clip0"><rect x="564" y="374" width="41" height="41"/></clipPath></defs><g clip-path="url(#clip0)" transform="translate(-564 -374)"><path d="M596.946 390.342 597.74 389.707 597.706 389.466C597.327 386.913 595.271 384.049 590.994 383.075 590.763 383.026 590.537 383.174 590.488 383.405 590.482 383.434 590.479 383.464 590.479 383.494L590.479 384.345C590.483 384.537 590.617 384.701 590.805 384.742 592.835 385.243 594.235 387.407 594.371 390.096L595.146 403.107C595.181 403.697 594.73 404.205 594.139 404.24 594.135 404.24 594.131 404.24 594.127 404.24L594.081 404.24C593.468 404.21 592.991 403.698 593.003 403.084L593.003 396.038C593.003 394.151 591.473 392.621 589.586 392.621L588.771 392.621 588.771 382.542C588.771 381.126 587.624 379.979 586.208 379.979L575.958 379.979C574.543 379.979 573.396 381.126 573.396 382.542L573.396 406.458 571.688 406.458 571.688 409.021 590.479 409.021 590.479 406.458 588.771 406.458 588.771 395.183 589.586 395.183C590.058 395.183 590.44 395.566 590.44 396.038L590.44 403.034C590.419 404.292 591.031 405.478 592.068 406.191 593.736 407.303 595.99 406.852 597.102 405.184 597.541 404.526 597.753 403.742 597.705 402.953ZM575.958 382.542 586.208 382.542 586.208 390.229 575.958 390.229Z" fill="#FFFFFF"/></g></svg>