<svg width="41" height="42" xmlns="http://www.w3.org/2000/svg" xmlns:xlink="http://www.w3.org/1999/xlink" overflow="hidden"><defs><clipPath id="clip0"><rect x="574" y="524" width="41" height="42"/></clipPath></defs><g clip-path="url(#clip0)" transform="translate(-574 -524)"><path d="M30.3229 18.7917C28.6573 18.7917 27.3333 17.4677 27.3333 15.8021 27.3333 14.1365 28.6573 12.8125 30.3229 12.8125 31.9885 12.8125 33.3125 14.1365 33.3125 15.8021 33.3125 17.4677 31.9885 18.7917 30.3229 18.7917ZM35.0208 15.8021C35.0208 13.1969 32.9281 11.1042 30.3229 11.1042 27.7177 11.1042 25.625 13.1969 25.625 15.8021 25.625 17.9375 27.0771 19.774 29.0417 20.3292L29.0417 30.3229C29.0417 33.8677 26.1802 36.7292 22.6354 36.7292 19.0906 36.7292 16.2292 33.8677 16.2292 30.3229L16.2292 25.9667C20.5854 25.326 23.9167 21.6104 23.9167 17.0833 23.9167 16.4427 23.575 15.8875 23.0625 15.6312L23.0625 5.125C23.0625 3.84375 22.0802 2.77604 20.8417 2.60521 20.6708 2.09271 20.201 1.70833 19.6458 1.70833L19.2188 1.70833C18.2792 1.70833 17.5104 2.47708 17.5104 3.41667 17.5104 4.35625 18.2792 5.125 19.2188 5.125L19.6458 5.125C20.1583 5.125 20.6281 4.78333 20.8417 4.35625 21.1406 4.48438 21.3542 4.78333 21.3542 5.125L21.3542 15.6312C20.8417 15.9302 20.5 16.4854 20.5 17.0833 20.5 20.1583 18.0229 22.6354 14.9479 22.6354 11.8729 22.6354 9.39583 20.1583 9.39583 17.0833 9.39583 16.4427 9.05417 15.8875 8.54167 15.6312L8.54167 5.125C8.54167 4.78333 8.75521 4.48438 9.05417 4.35625 9.26771 4.82604 9.69479 5.125 10.25 5.125L10.6771 5.125C11.6167 5.125 12.3854 4.35625 12.3854 3.41667 12.3854 2.47708 11.6167 1.70833 10.6771 1.70833L10.25 1.70833C9.69479 1.70833 9.225 2.09271 9.05417 2.60521 7.81562 2.77604 6.83333 3.84375 6.83333 5.125L6.83333 15.6312C6.32083 15.9302 5.97917 16.4854 5.97917 17.0833 5.97917 21.6104 9.31042 25.326 13.6667 25.9667L13.6667 30.3229C13.6667 35.2771 17.6813 39.2917 22.6354 39.2917 27.5896 39.2917 31.6042 35.2771 31.6042 30.3229L31.6042 20.3292C33.5687 19.774 35.0208 17.9375 35.0208 15.8021Z" fill="#FFFFFF" transform="matrix(1 0 0 1.02439 574 524)"/><path d="M32.4583 15.8021C32.4583 16.9814 31.5023 17.9375 30.3229 17.9375 29.1436 17.9375 28.1875 16.9814 28.1875 15.8021 28.1875 14.6227 29.1436 13.6667 30.3229 13.6667 31.5023 13.6667 32.4583 14.6227 32.4583 15.8021Z" fill="#FFFFFF" transform="matrix(1 0 0 1.02439 574 524)"/></g></svg>