<svg width="41" height="41" xmlns="http://www.w3.org/2000/svg" xmlns:xlink="http://www.w3.org/1999/xlink" overflow="hidden"><defs><clipPath id="clip0"><rect x="573" y="423" width="41" height="41"/></clipPath></defs><g clip-path="url(#clip0)" transform="translate(-573 -423)"><path d="M592.479 452.101C592.479 453.172 591.611 454.04 590.54 454.04 589.469 454.04 588.601 453.172 588.601 452.101 588.601 451.031 589.469 450.163 590.54 450.163 591.611 450.163 592.479 451.031 592.479 452.101Z" fill="#FFFFFF"/><path d="M594.354 458.448 594.354 456.509C594.348 456.207 594.207 455.923 593.97 455.736 593.413 455.306 592.775 454.993 592.095 454.813 591.581 454.656 591.047 454.575 590.51 454.574 589.974 454.583 589.441 454.663 588.926 454.813 588.253 455.013 587.619 455.325 587.051 455.736 586.814 455.923 586.673 456.207 586.667 456.509L586.667 458.448Z" fill="#FFFFFF"/><path d="M600.961 452.101C600.961 453.172 600.093 454.04 599.022 454.04 597.951 454.04 597.083 453.172 597.083 452.101 597.083 451.031 597.951 450.163 599.022 450.163 600.093 450.163 600.961 451.031 600.961 452.101Z" fill="#FFFFFF"/><path d="M602.896 458.448 602.896 456.509C602.89 456.207 602.749 455.923 602.511 455.736 601.954 455.306 601.317 454.993 600.637 454.813 600.123 454.656 599.589 454.575 599.052 454.574 598.516 454.583 597.983 454.663 597.468 454.813 596.795 455.013 596.161 455.325 595.593 455.736 595.356 455.923 595.215 456.207 595.208 456.509L595.208 458.448Z" fill="#FFFFFF"/><path d="M609.503 452.101C609.503 453.172 608.635 454.04 607.564 454.04 606.493 454.04 605.625 453.172 605.625 452.101 605.625 451.031 606.493 450.163 607.564 450.163 608.635 450.163 609.503 451.031 609.503 452.101Z" fill="#FFFFFF"/><path d="M611.438 458.448 611.438 456.509C611.431 456.207 611.29 455.923 611.053 455.736 610.496 455.306 609.858 454.993 609.178 454.813 608.665 454.656 608.131 454.575 607.594 454.574 607.057 454.583 606.524 454.663 606.009 454.813 605.337 455.013 604.703 455.325 604.134 455.736 603.897 455.923 603.756 456.207 603.75 456.509L603.75 458.448Z" fill="#FFFFFF"/><path d="M584.711 434.172C584.711 435.574 583.575 436.709 582.174 436.709 580.773 436.709 579.637 435.574 579.637 434.172 579.637 432.771 580.773 431.636 582.174 431.636 583.575 431.636 584.711 432.771 584.711 434.172Z" fill="#FFFFFF"/><path d="M597.134 433.194C596.883 432.947 596.48 432.947 596.229 433.194L590.711 438.712C590.27 438.588 589.796 438.708 589.468 439.028 589.379 439.118 587.786 441.723 587.786 441.723L587.307 439.686C587.244 439.423 587.113 439.182 586.927 438.986 586.14 438.349 585.234 437.876 584.262 437.593 583.575 437.446 582.876 437.362 582.174 437.341 581.465 437.352 580.761 437.459 580.081 437.658 579.1 437.915 578.191 438.391 577.42 439.05 577.233 439.245 577.102 439.487 577.04 439.75 577.04 439.75 575.199 447.48 575.199 447.609 575.199 448.316 575.773 448.89 576.481 448.89 577.048 448.875 577.538 448.49 577.685 447.942L579.018 442.428 579.018 460.156 581.542 460.156 581.542 448.749 582.823 448.749 582.823 460.156 585.343 460.156 585.343 442.347 585.812 444.354C585.845 444.493 585.937 444.61 586.064 444.674 586.556 445.051 587.154 445.262 587.773 445.277 588.176 445.333 588.575 445.152 588.798 444.811L591.403 440.54C591.57 440.278 591.632 439.962 591.578 439.656L597.13 434.104C597.382 433.854 597.384 433.447 597.134 433.194Z" fill="#FFFFFF"/><path d="M605.885 427.271 584.958 427.271C584.015 427.271 583.25 428.036 583.25 428.979L583.25 430.517C583.903 430.694 584.494 431.049 584.958 431.542L584.958 428.979 605.885 428.979 605.885 443.073 591.309 443.073 590.267 444.781 605.885 444.781C606.829 444.781 607.594 444.016 607.594 443.073L607.594 428.979C607.594 428.036 606.829 427.271 605.885 427.271Z" fill="#FFFFFF"/></g></svg>