<svg width="42" height="42" xmlns="http://www.w3.org/2000/svg" xmlns:xlink="http://www.w3.org/1999/xlink" overflow="hidden"><defs><clipPath id="clip0"><rect x="577" y="235" width="42" height="42"/></clipPath></defs><g clip-path="url(#clip0)" transform="translate(-577 -235)"><path d="M610.701 259.732C610.701 261.612 609.177 263.136 607.297 263.136 605.417 263.136 603.893 261.612 603.893 259.732 603.893 257.852 605.417 256.328 607.297 256.328 609.177 256.328 610.701 257.852 610.701 259.732Z" fill="#FFFFFF"/><path d="M592.549 259.732C592.549 261.612 591.025 263.136 589.145 263.136 587.265 263.136 585.741 261.612 585.741 259.732 585.741 257.852 587.265 256.328 589.145 256.328 591.025 256.328 592.549 257.852 592.549 259.732Z" fill="#FFFFFF"/><path d="M613.426 266.084C612.444 265.321 611.308 264.779 610.097 264.496 609.186 264.23 608.245 264.083 607.297 264.059 606.348 264.057 605.404 264.204 604.501 264.496 603.598 264.737 602.734 265.108 601.938 265.599L601.78 265.778C603.052 266.121 604.242 266.717 605.28 267.528 606.096 268.127 606.572 269.084 606.557 270.096L606.557 270.875 614.104 270.875 614.104 267.449C614.119 266.91 613.865 266.398 613.426 266.084Z" fill="#FFFFFF"/><path d="M589.898 270.096C589.898 269.111 590.351 268.18 591.127 267.572L591.175 267.528 591.232 267.489C592.282 266.741 593.444 266.165 594.675 265.783 594.588 265.691 594.504 265.594 594.426 265.498 593.649 265.047 592.813 264.71 591.941 264.496 591.031 264.231 590.092 264.084 589.145 264.059 588.194 264.056 587.25 264.204 586.345 264.496 585.151 264.826 584.023 265.363 583.016 266.084 582.591 266.411 582.34 266.914 582.333 267.449L582.333 270.875 589.898 270.875Z" fill="#FFFFFF"/><path d="M591.411 273.5 591.411 270.096C591.413 269.561 591.666 269.057 592.094 268.736 593.1 268.011 594.227 267.473 595.423 267.147 596.326 266.854 597.27 266.706 598.219 266.71 599.167 266.732 600.109 266.879 601.019 267.147 602.232 267.426 603.368 267.969 604.348 268.736 604.789 269.047 605.045 269.557 605.031 270.096L605.031 273.5Z" fill="#FFFFFF"/><path d="M601.622 262.379C601.622 264.259 600.099 265.783 598.219 265.783 596.339 265.783 594.815 264.259 594.815 262.379 594.815 260.499 596.339 258.975 598.219 258.975 600.099 258.975 601.622 260.499 601.622 262.379Z" fill="#FFFFFF"/><path d="M612.438 238.5 584.109 238.5C583.143 238.5 582.359 239.284 582.359 240.25L582.359 249.875C582.359 250.841 583.143 251.625 584.109 251.625L590.562 251.625 590.562 254.25 593.319 251.625 596.294 251.625 598 254.25 599.575 251.625 602.681 251.625 605.438 254.25 605.438 251.625 612.438 251.625C613.404 251.625 614.188 250.841 614.188 249.875L614.188 240.25C614.188 239.284 613.404 238.5 612.438 238.5ZM586.734 242.438 607.188 242.438 607.188 243.312 586.734 243.312ZM602.812 247.688 586.734 247.688 586.734 246.812 602.812 246.812ZM609.812 245.5 586.734 245.5 586.734 244.625 609.812 244.625Z" fill="#FFFFFF"/></g></svg>