<svg width="41" height="42" xmlns="http://www.w3.org/2000/svg" xmlns:xlink="http://www.w3.org/1999/xlink" overflow="hidden"><defs><clipPath id="clip0"><rect x="575" y="331" width="41" height="42"/></clipPath></defs><g clip-path="url(#clip0)" transform="translate(-575 -331)"><path d="M29.3705 23.9167C29.8423 23.9167 30.2247 23.5343 30.2247 23.0625 30.2247 22.5907 29.8423 22.2083 29.3705 22.2083L28.1875 22.2083 28.1875 21.3542 29.3705 21.3542C29.8423 21.3542 30.2247 20.9718 30.2247 20.5 30.2247 20.0282 29.8423 19.6458 29.3705 19.6458L28.1875 19.6458 28.1875 17.9375 26.4792 17.9375 26.4792 19.6458 14.5208 19.6458 14.5208 17.9375 12.8125 17.9375 12.8125 19.6458 11.6295 19.6458C11.1577 19.6458 10.7753 20.0282 10.7753 20.5 10.7753 20.9718 11.1577 21.3542 11.6295 21.3542L12.8125 21.3542 12.8125 22.2083 11.6295 22.2083C11.1577 22.2083 10.7753 22.5907 10.7753 23.0625 10.7753 23.5343 11.1577 23.9167 11.6295 23.9167L12.8125 23.9167 12.8125 24.7708 11.6295 24.7708C11.1577 24.7708 10.7753 25.1532 10.7753 25.625 10.7753 26.0968 11.1577 26.4792 11.6295 26.4792L12.8125 26.4792 12.8125 27.7604 14.5208 27.7604 14.5208 26.4792 26.4792 26.4792 26.4792 27.7604 28.1875 27.7604 28.1875 26.4792 29.3705 26.4792C29.8423 26.4792 30.2247 26.0968 30.2247 25.625 30.2247 25.1532 29.8423 24.7708 29.3705 24.7708L28.1875 24.7708 28.1875 23.9167ZM14.5208 21.3542 26.4792 21.3542 26.4792 22.2083 14.5208 22.2083ZM26.4792 24.7708 14.5208 24.7708 14.5208 23.9167 26.4792 23.9167Z" fill="#FFFFFF" transform="matrix(1 0 0 1.02439 575 331)"/><path d="M34.5938 35.0208 34.5938 12.8552 35.0977 12.8552C35.1346 12.8596 35.1719 12.8596 35.2088 12.8552 35.2679 12.8466 35.3255 12.8294 35.3796 12.804 35.4125 12.7917 35.444 12.776 35.4735 12.757 35.5921 12.6843 35.6836 12.5748 35.7341 12.4452 35.7511 12.4162 35.7626 12.3844 35.7682 12.3513L35.7682 12.3171 36.9214 6.80771 36.9214 6.80771C36.926 6.76513 36.926 6.72216 36.9214 6.67958 36.9214 6.34646 36.7548 5.74854 35.6401 5.41969 35.2992 5.3124 34.9488 5.23801 34.5938 5.1976 34.5539 4.75613 34.1829 4.41852 33.7396 4.42031 33.293 4.40549 32.9151 4.7475 32.8854 5.19333L32.8854 5.19333C31.4034 5.33427 30.5407 5.85531 30.5407 6.64969 30.5407 6.67531 30.5407 6.70094 30.5407 6.72229 30.5387 6.74501 30.5387 6.7679 30.5407 6.79063 30.5373 6.80754 30.5373 6.82496 30.5407 6.84188L31.6682 12.2616 31.6682 12.3384 31.6682 12.3384C31.6778 12.3751 31.6906 12.4109 31.7067 12.4452 31.7059 12.458 31.7059 12.4708 31.7067 12.4836L31.7579 12.5648 31.7835 12.5947C31.8016 12.6191 31.8232 12.6407 31.8476 12.6587 31.8476 12.6587 31.8732 12.6844 31.886 12.6972L31.9843 12.7612C32.0178 12.7812 32.0537 12.797 32.091 12.8082 32.127 12.8208 32.1642 12.8294 32.2021 12.8339 32.239 12.838 32.2762 12.838 32.3131 12.8339L32.8854 12.8339 32.8854 35.0208 29.0417 35.0208 29.0417 31.1771 30.9294 31.1771C31.302 31.1771 31.6042 30.875 31.6042 30.5023L31.6042 29.2894C31.6042 28.9167 31.302 28.6146 30.9294 28.6146L10.0706 28.6146C9.69795 28.6146 9.39583 28.9167 9.39583 29.2894L9.39583 30.5023C9.39583 30.875 9.69795 31.1771 10.0706 31.1771L11.9583 31.1771 11.9583 35.0208 6.83333 35.0208 6.83333 34.4101 7.5551 34.4101C7.85291 34.4095 8.10873 34.1984 8.16583 33.9061L8.16583 33.9061C8.28576 33.3626 8.55153 32.8621 8.93458 32.4583 8.98784 32.4082 8.99036 32.3244 8.94026 32.2712 8.90494 32.2337 8.85109 32.22 8.80219 32.2363 8.05893 32.4058 7.37731 32.7784 6.83333 33.3125L6.83333 32.1466C8.73812 31.8263 7.6875 29.3492 7.6875 29.3492 7.65158 29.2855 7.57082 29.263 7.50714 29.2989 7.48613 29.3108 7.46875 29.3282 7.45687 29.3492L6.9999 30.1265 6.54292 29.3492C6.51896 29.3058 6.47283 29.2795 6.42333 29.2808 6.37537 29.281 6.33125 29.3072 6.30802 29.3492L5.85104 30.1265 5.39406 29.3492C5.35545 29.2843 5.27157 29.263 5.20674 29.3016 5.18714 29.3133 5.17083 29.3296 5.15917 29.3492 5.15917 29.3492 4.09573 31.8263 6.01333 32.1466L6.01333 33.3125C5.47119 32.7813 4.79277 32.4103 4.05302 32.2405 3.99287 32.1945 3.90683 32.206 3.86083 32.2661 3.81484 32.3263 3.82631 32.4123 3.88646 32.4583 4.26958 32.8587 4.5355 33.3565 4.65521 33.8976L4.65521 33.8976C4.71231 34.1899 4.96813 34.401 5.26594 34.4016L5.97917 34.4016 5.97917 35.0208 1.70833 35.0208 1.70833 36.7292 39.2917 36.7292 39.2917 35.0208ZM27.3333 35.0208 13.6667 35.0208 13.6667 31.1771 27.3333 31.1771ZM33.2057 11.1469 32.3516 7.01698C32.5556 6.96018 32.7643 6.92157 32.9751 6.90167L34.4571 6.90167C34.6904 6.92358 34.9218 6.96355 35.149 7.02125L34.2948 11.1469Z" fill="#FFFFFF" transform="matrix(1 0 0 1.02439 575 331)"/></g></svg>