<svg width="42" height="42" xmlns="http://www.w3.org/2000/svg" xmlns:xlink="http://www.w3.org/1999/xlink" overflow="hidden"><defs><clipPath id="clip0"><rect x="579" y="169" width="42" height="42"/></clipPath></defs><g clip-path="url(#clip0)" transform="translate(-579 -169)"><path d="M593.249 196.816 594.164 193.404 594.024 192.879C593.88 192.911 593.733 192.928 593.586 192.931 593.388 192.938 593.19 192.913 593 192.857 592.47 192.722 592.015 192.384 591.731 191.916 591.412 191.376 591.32 190.731 591.473 190.122L593.438 182.86 593.438 182.834 593.438 182.812C593.551 182.478 593.721 182.165 593.941 181.889 593.21 181.263 592.369 180.779 591.46 180.462 589.929 179.938 588.266 179.938 586.735 180.462 585.585 180.844 584.547 181.505 583.716 182.387 583.542 182.595 583.407 182.832 583.318 183.087L581.354 190.35C581.145 191.057 581.549 191.799 582.256 192.008 582.261 192.009 582.267 192.011 582.273 192.012 582.385 192.049 582.504 192.063 582.622 192.056 583.211 192.045 583.725 191.657 583.896 191.094L585.646 184.706 585.646 187.725 585.646 187.725 583.148 197.044 585.646 197.044 585.646 206.975 588.271 206.975 588.271 197.044 590.021 197.044 590.021 206.931 592.646 206.931 592.646 197.044 593.188 197.044Z" fill="#FFFFFF"/><path d="M618.738 190.35 616.769 183.087C616.692 182.828 616.557 182.589 616.376 182.387 615.537 181.515 614.502 180.855 613.357 180.462 611.826 179.938 610.163 179.938 608.632 180.462 607.718 180.768 606.874 181.252 606.147 181.884 606.37 182.161 606.542 182.475 606.654 182.812L606.654 182.834 606.654 182.86 608.628 190.14C608.93 191.275 608.312 192.453 607.206 192.848 607.009 192.91 606.803 192.938 606.597 192.931 606.45 192.928 606.304 192.911 606.16 192.879L606.02 193.404 606.934 196.816 606.996 197.044 607.542 197.044 607.542 206.975 610.167 206.975 610.167 197.044 611.917 197.044 611.917 206.931 614.542 206.931 614.542 197.044 617.036 197.044 614.542 187.729 614.542 184.706 616.292 191.094C616.461 191.656 616.974 192.045 617.561 192.056 617.68 192.063 617.798 192.049 617.911 192.012 618.568 191.747 618.922 191.034 618.738 190.35Z" fill="#FFFFFF"/><path d="M607.792 190.35 605.823 183.087C605.745 182.828 605.611 182.589 605.429 182.387 604.591 181.515 603.556 180.855 602.411 180.462 600.879 179.938 599.217 179.938 597.686 180.462 596.535 180.844 595.498 181.505 594.667 182.387 594.491 182.594 594.356 182.831 594.269 183.087L592.3 190.35C592.091 191.057 592.495 191.799 593.202 192.008 593.207 192.009 593.213 192.011 593.219 192.012 593.332 192.049 593.45 192.063 593.569 192.056 594.157 192.045 594.671 191.657 594.842 191.094L596.592 184.706 596.592 187.725 596.592 187.725 594.094 197.044 596.592 197.044 596.592 206.975 599.217 206.975 599.217 197.044 600.967 197.044 600.967 206.931 603.592 206.931 603.592 197.044 606.086 197.044 603.592 187.729 603.592 184.706 605.342 191.094C605.511 191.656 606.024 192.045 606.611 192.056 606.729 192.063 606.848 192.049 606.961 192.012 607.619 191.749 607.976 191.035 607.792 190.35Z" fill="#FFFFFF"/><path d="M614 176.087C614 177.779 612.629 179.15 610.938 179.15 609.246 179.15 607.875 177.779 607.875 176.087 607.875 174.396 609.246 173.025 610.938 173.025 612.629 173.025 614 174.396 614 176.087Z" fill="#FFFFFF"/><path d="M592.125 176.087C592.125 177.779 590.754 179.15 589.062 179.15 587.371 179.15 586 177.779 586 176.087 586 174.396 587.371 173.025 589.062 173.025 590.754 173.025 592.125 174.396 592.125 176.087Z" fill="#FFFFFF"/><path d="M603.062 176.087C603.062 177.779 601.691 179.15 600 179.15 598.309 179.15 596.938 177.779 596.938 176.087 596.938 174.396 598.309 173.025 600 173.025 601.691 173.025 603.062 174.396 603.062 176.087Z" fill="#FFFFFF"/></g></svg>