<svg width="42" height="41" xmlns="http://www.w3.org/2000/svg" xmlns:xlink="http://www.w3.org/1999/xlink" overflow="hidden"><defs><clipPath id="clip0"><rect x="577" y="101" width="42" height="41"/></clipPath></defs><g clip-path="url(#clip0)" transform="translate(-577 -101)"><path d="M26.8764 21.3542C25.4328 20.1242 23.5579 19.5476 21.7812 18.9924L21.7812 8.66552C23.5062 8.82944 25.1183 9.59614 26.334 10.8308L28.384 8.86625C26.6296 7.0816 24.2787 6.0065 21.7812 5.84677L21.7812 2.13542 19.2188 2.13542 19.2188 6.00906C18.3413 6.17985 17.4947 6.48223 16.7075 6.90594 13.4702 8.66979 11.8174 12.8125 13.1456 16.3018 14.1749 18.9924 16.6562 20.1925 19.2188 21.0936L19.2188 32.2747C17.2328 32.0312 15.5843 30.8909 14.2176 29.4688L12.1676 31.4291C13.1437 32.5367 14.3075 33.4634 15.6056 34.1667 16.7402 34.7064 17.9656 35.0294 19.2188 35.1191L19.2188 38.8646 21.7812 38.8646 21.7812 35.0208C24.7196 34.5297 27.4187 32.7231 28.5804 29.8958 29.7421 27.0685 29.3193 23.4426 26.8764 21.3542ZM17.0833 16.968C14.7344 14.9864 15.3067 11.1511 17.7966 9.5624 18.2379 9.27937 18.7165 9.05942 19.2188 8.90896L19.2188 18.1724C18.4455 17.8912 17.724 17.4842 17.0833 16.968ZM24.8093 30.5578C23.9757 31.3727 22.924 31.929 21.7812 32.1594L21.7812 21.9564C23.4896 22.5415 25.4499 23.2846 26.146 25.104 26.8422 26.9233 26.1418 29.1997 24.8093 30.5578Z" fill="#FFFFFF" transform="matrix(1.02439 0 0 1 577 101)"/></g></svg>