<svg width="42" height="42" xmlns="http://www.w3.org/2000/svg" xmlns:xlink="http://www.w3.org/1999/xlink" overflow="hidden"><defs><clipPath id="clip0"><rect x="564" y="416" width="42" height="42"/></clipPath></defs><g clip-path="url(#clip0)" transform="translate(-564 -416)"><path d="M596.331 437.569C597.119 440.763 593.838 443.913 590.6 442.6 587.888 441.638 586.838 438.487 588.719 435.775 592.963 430.131 589.856 421.25 582.812 418.188 586.006 424.225 581.106 429.781 578.306 432.1 575.506 434.419 573.625 436.825 573.056 438.225 570.213 445.138 574.456 451.744 577.344 453.319 576.031 450.344 574.806 444.656 579.969 439.319 579.969 439.319 578.481 445.006 581.719 448.944 584.956 452.881 584.912 455.812 584.912 455.812 589.944 455.812 594.713 452.794 596.725 447.85 598.256 444.919 598.388 440.281 596.331 437.569" fill="#FFFFFF"/></g></svg>