<svg width="41" height="41" xmlns="http://www.w3.org/2000/svg" xmlns:xlink="http://www.w3.org/1999/xlink" overflow="hidden"><defs><clipPath id="clip0"><rect x="575" y="212" width="41" height="41"/></clipPath></defs><g clip-path="url(#clip0)" transform="translate(-575 -212)"><path d="M610.96 224.343C606.433 221.652 601.138 220.115 595.5 220.115 589.862 220.115 584.567 221.652 580.04 224.343 579.185 224.855 578.929 225.966 579.484 226.777L581.748 230.108C582.346 231.005 583.627 231.133 584.353 230.365L586.446 228.272C586.787 227.93 586.958 227.503 586.958 227.076L586.958 224.898C589.649 224.001 592.51 223.489 595.5 223.489 598.49 223.489 601.351 224.001 604.042 224.898L604.042 227.076C604.042 227.546 604.213 227.973 604.554 228.272L606.647 230.365C607.416 231.133 608.654 231.005 609.252 230.108L611.516 226.777C612.071 225.966 611.815 224.855 610.96 224.343Z" fill="#FFFFFF"/><path d="M599.771 234.208 598.062 234.208 598.062 232.5 599.771 232.5 599.771 234.208ZM599.771 237.625 598.062 237.625 598.062 235.917 599.771 235.917 599.771 237.625ZM599.771 241.042 598.062 241.042 598.062 239.333 599.771 239.333 599.771 241.042ZM596.354 234.208 594.646 234.208 594.646 232.5 596.354 232.5 596.354 234.208ZM596.354 237.625 594.646 237.625 594.646 235.917 596.354 235.917 596.354 237.625ZM596.354 241.042 594.646 241.042 594.646 239.333 596.354 239.333 596.354 241.042ZM592.938 234.208 591.229 234.208 591.229 232.5 592.938 232.5 592.938 234.208ZM592.938 237.625 591.229 237.625 591.229 235.917 592.938 235.917 592.938 237.625ZM592.938 241.042 591.229 241.042 591.229 239.333 592.938 239.333 592.938 241.042ZM602.333 229.51 602.333 226.948C602.333 226.222 601.778 225.667 601.052 225.667 600.326 225.667 599.771 226.222 599.771 226.948L599.771 229.083 591.229 229.083 591.229 226.948C591.229 226.222 590.674 225.667 589.948 225.667 589.222 225.667 588.667 226.222 588.667 226.948L588.667 229.51 583.67 234.507C583.029 235.148 582.688 236.002 582.688 236.942L582.688 244.458 608.312 244.458 608.312 236.899C608.312 236.002 607.971 235.105 607.33 234.465L602.333 229.51Z" fill="#FFFFFF"/></g></svg>