<svg width="41" height="42" xmlns="http://www.w3.org/2000/svg" xmlns:xlink="http://www.w3.org/1999/xlink" overflow="hidden"><defs><clipPath id="clip0"><rect x="560" y="257" width="41" height="42"/></clipPath></defs><g clip-path="url(#clip0)" transform="translate(-560 -257)"><path d="M34.2461 9.50132C34.2461 9.50132 32.6185 11.9105 32.6185 12.9979 32.5748 13.8969 33.2682 14.6611 34.1672 14.7048 35.0662 14.7485 35.8305 14.0551 35.8741 13.1561 35.8767 13.1034 35.8767 13.0506 35.8741 12.9979 35.875 11.9156 34.2461 9.50132 34.2461 9.50132Z" fill="#FFFFFF" transform="matrix(1 0 0 1.02439 560 257)"/><path d="M34.739 5.97917 34.3161 4.97082C34.2252 4.75515 33.9776 4.65286 33.7609 4.74148L26.5274 7.73106C25.925 7.98027 25.4063 8.3965 25.0326 8.93074L23.276 11.4424 22.3937 11.0491C22.1783 10.9529 21.9257 11.0496 21.8296 11.265 21.8296 11.265 21.8296 11.2651 21.8295 11.2652L21.1462 12.8027 17.8269 9.66788C17.3505 9.21812 16.7199 8.96794 16.0647 8.96875L7.6875 8.96875C6.27227 8.96875 5.125 10.116 5.125 11.5312L5.125 33.3125C5.125 34.7277 6.27227 35.875 7.6875 35.875L25.1979 35.875C26.6131 35.875 27.7604 34.7277 27.7604 33.3125L27.7604 17.4814C27.7585 16.6642 27.3659 15.8972 26.7042 15.4177L27.4397 13.7687C27.5362 13.554 27.4407 13.3016 27.2261 13.2046L26.3391 12.8091 27.3688 10.2927C27.6289 9.65862 28.1322 9.15517 28.7662 8.89487L34.5083 6.53822C34.7262 6.44793 34.8297 6.19809 34.7394 5.98015 34.7393 5.97985 34.7391 5.97951 34.739 5.97917ZM13.0196 14.5208C12.34 14.5209 11.6882 14.251 11.2075 13.7704L8.96875 11.5312 15.3857 11.5312C15.8218 11.5313 16.2414 11.6982 16.5584 11.9976L19.2303 14.5208Z" fill="#FFFFFF" transform="matrix(1 0 0 1.02439 560 257)"/></g></svg>