<svg width="41" height="42" xmlns="http://www.w3.org/2000/svg" xmlns:xlink="http://www.w3.org/1999/xlink" overflow="hidden"><defs><clipPath id="clip0"><rect x="575" y="205" width="41" height="42"/></clipPath></defs><g clip-path="url(#clip0)" transform="translate(-575 -205)"><path d="M37.2118 37.1562C35.7892 33.872 33.0588 26.3613 34.1714 19.1974 34.2214 18.8471 33.978 18.5226 33.6277 18.4726 33.5966 18.4682 33.5652 18.4661 33.5337 18.4662L28.369 18.4662C27.9509 26.4446 31.1878 34.3879 32.4528 37.1562L31.049 37.1562C29.4184 33.4616 25.9884 24.3519 27.3726 15.6983 27.4332 15.3497 27.1998 15.018 26.8512 14.9574 26.8154 14.9512 26.7791 14.948 26.7427 14.9479L13.8973 14.9479C13.5435 14.9488 13.2574 15.2364 13.2583 15.5902 13.2584 15.6264 13.2616 15.6626 13.2678 15.6983 14.6519 24.3519 11.222 33.4616 9.59144 37.1562L8.18719 37.1562C9.45306 34.3875 12.6886 26.4437 12.2705 18.4662L7.0426 18.4662C6.68881 18.465 6.401 18.7509 6.39984 19.1047 6.39972 19.1357 6.40185 19.1667 6.40625 19.1974 7.51667 26.3613 4.78718 33.872 3.36456 37.1562L0.854167 37.1562 0.854167 38.8646 40.1458 38.8646 40.1458 37.1562Z" fill="#FFFFFF" transform="matrix(1 0 0 1.02439 575 205)"/><path d="M21.7432 12.3C22.0608 11.7788 22.7407 11.6136 23.2619 11.931L23.5763 12.1228C25.314 13.1802 27.5799 12.6288 28.6373 10.8911 28.6374 10.8909 28.6376 10.8908 28.6376 10.8906 28.9552 10.3694 29.6351 10.2042 30.1564 10.5216 32.1718 11.8079 34.8483 11.2176 36.1355 9.20279 37.3324 7.13503 36.6286 4.48852 34.5626 3.28854 33.1588 2.41741 31.3874 2.39816 29.965 3.23857 29.7547 3.02786 29.5203 2.84265 29.2667 2.68678 27.6095 1.62939 25.409 2.11429 24.3497 3.77029 23.9399 4.44624 23.7802 5.24454 23.8983 6.02615 22.6764 6.18049 21.5915 6.88347 20.9514 7.93564L20.169 9.2203C20.1075 9.21475 20.0481 9.20151 19.9849 9.20151 18.8553 9.20151 17.9396 10.1172 17.9396 11.2468 17.9396 12.3764 18.8553 13.2921 19.9849 13.2921 20.4356 13.2907 20.873 13.1391 21.2278 12.8612 21.41 12.7431 21.5637 12.586 21.6779 12.4012Z" fill="#FFFFFF" transform="matrix(1 0 0 1.02439 575 205)"/></g></svg>