<svg width="42" height="42" xmlns="http://www.w3.org/2000/svg" xmlns:xlink="http://www.w3.org/1999/xlink" overflow="hidden"><defs><clipPath id="clip0"><rect x="574" y="57" width="42" height="42"/></clipPath></defs><g clip-path="url(#clip0)" transform="translate(-574 -57)"><path d="M598.85 61.5938 600.6 61.5938 600.6 66.8438 598.85 66.8438Z" fill="#FFFFFF"/><path d="M609.963 66.1839 606.25 69.8962 605.013 68.6588 608.725 64.9465Z" fill="#FFFFFF"/><path d="M608.037 74.2812 613.287 74.2812 613.287 76.0312 608.037 76.0312Z" fill="#FFFFFF"/><path d="M609.954 84.1178 608.716 85.3552 605.004 81.6429 606.242 80.4055Z" fill="#FFFFFF"/><path d="M586.162 74.2812 591.412 74.2812 591.412 76.0312 586.162 76.0312Z" fill="#FFFFFF"/><path d="M594.473 68.6809 593.235 69.9183 589.523 66.206 590.76 64.9686Z" fill="#FFFFFF"/><path d="M602.35 86.0938C602.131 86.0938 601.912 86.0938 601.694 86.1375 601.694 86.1375 601.694 86.0938 601.694 86.0938 601.694 84.4313 600.906 82.8125 599.506 81.85 598.15 80.8438 596.4 80.5813 594.781 81.1062 593.425 78.5687 590.494 77.2562 587.694 77.9563 584.894 78.6125 582.925 81.1062 582.838 83.9938 581 83.6438 579.031 84.3438 577.806 85.875 576.625 87.4062 576.362 89.5063 577.15 91.2563 577.938 93.05 579.644 94.2312 581.612 94.3625L602.612 94.4062C604.888 94.3625 606.725 92.4375 606.638 90.1187 606.594 87.8438 604.669 86.05 602.35 86.0938Z" fill="#FFFFFF"/><path d="M593.513 77.2562C594.3 77.7375 595.044 78.3938 595.612 79.1375 597.888 78.875 600.119 79.7063 601.65 81.4125 604.188 80.625 606.025 78.3938 606.244 75.725 606.463 73.0563 605.062 70.5188 602.7 69.2937 600.338 68.0687 597.45 68.4187 595.438 70.1687 593.425 71.9187 592.681 74.7188 593.513 77.2562L593.513 77.2562Z" fill="#FFFFFF"/></g></svg>