<svg width="42" height="42" xmlns="http://www.w3.org/2000/svg" xmlns:xlink="http://www.w3.org/1999/xlink" overflow="hidden"><defs><clipPath id="clip0"><rect x="577" y="314" width="42" height="42"/></clipPath></defs><g clip-path="url(#clip0)" transform="translate(-577 -314)"><path d="M610.304 320.344C610.301 317.566 608.05 315.316 605.273 315.312 605.12 315.312 604.968 315.319 604.817 315.333 603.085 315.498 601.576 316.583 600.869 318.173 600.335 319.382 600.276 320.747 600.702 321.998L603.104 329.378C603.229 329.77 603.17 330.198 602.944 330.542 602.76 330.832 602.454 331.022 602.112 331.057 602.073 331.061 602.033 331.062 601.992 331.062 601.929 331.063 601.867 331.058 601.805 331.049 601.288 330.949 600.906 330.511 600.876 329.985 600.453 325.405 598.555 324.196 596.086 323.844 591.322 323.163 584.273 327.781 586.023 337.406 586.046 337.532 586.07 337.652 586.094 337.773L589.523 334.344 593.008 334.344 588.352 339C588.093 339.246 587.964 339.6 588.002 339.955 588.073 340.5 588.538 340.907 589.087 340.906L595.212 340.906 595.212 353.594C595.212 354.198 595.701 354.688 596.306 354.688L599.525 354.688C600.101 354.699 600.596 354.278 600.675 353.707 600.737 353.106 600.301 352.568 599.7 352.506 599.662 352.502 599.624 352.5 599.586 352.5L597.398 352.5 597.398 340.906 600.023 340.906 600.023 343.032C600.011 343.608 600.433 344.103 601.004 344.182 601.605 344.244 602.142 343.808 602.205 343.207 602.209 343.169 602.211 343.132 602.211 343.094L602.211 339.812C602.211 339.208 601.721 338.719 601.117 338.719L597.398 338.719 597.398 334.344 601.655 334.344C602.691 334.345 603.693 333.976 604.482 333.305 604.882 333.008 605.227 332.644 605.502 332.228 606.246 331.107 606.435 329.708 606.016 328.43L603.568 320.913C603.381 320.328 603.468 319.69 603.805 319.177 604.089 318.728 604.564 318.437 605.092 318.385 605.151 318.379 605.212 318.377 605.273 318.377 606.36 318.378 607.241 319.259 607.242 320.345 607.242 320.351 607.242 320.356 607.242 320.362L607.242 325.32 607.286 325.32C608.542 325.342 609.609 324.406 609.75 323.157 609.79 322.659 609.667 322.16 609.4 321.737 609.949 321.491 610.303 320.946 610.304 320.344ZM591.726 338.719 595.211 335.234 595.211 338.719Z" fill="#FFFFFF"/></g></svg>