<svg width="42" height="42" xmlns="http://www.w3.org/2000/svg" xmlns:xlink="http://www.w3.org/1999/xlink" overflow="hidden"><defs><clipPath id="clip0"><rect x="579" y="425" width="42" height="42"/></clipPath></defs><g clip-path="url(#clip0)" transform="translate(-579 -425)"><path d="M617.325 444.25C617.108 444.25 616.912 444.119 616.831 443.918L613.444 435.938 606.23 432.962 599.024 435.938 595.713 443.843C595.592 444.117 595.271 444.242 594.997 444.121 594.723 444 594.599 443.68 594.719 443.406L598.219 435.093 606.247 431.781 614.263 435.102 617.824 443.493C617.939 443.769 617.81 444.085 617.535 444.202 617.468 444.23 617.397 444.247 617.325 444.25Z" fill="#FFFFFF"/><path d="M600.438 451.688 604.869 448.826 600.438 446 600.438 451.688Z" fill="#FFFFFF"/><path d="M601.991 445.562 606.125 448.188 610.548 445.562 601.991 445.562Z" fill="#FFFFFF"/><path d="M611.812 451.688 611.812 446 607.306 448.826 611.812 451.688Z" fill="#FFFFFF"/><path d="M615.312 452.917 615.312 443.834 612.744 436.493 606.234 433.75 599.733 436.506 596.938 443.812 596.938 453.293C597.783 452.875 598.661 452.525 599.562 452.247L599.562 445.125C599.562 444.828 600.14 444.688 600.438 444.688L611.812 444.688C612.11 444.688 612.688 444.828 612.688 445.125L612.688 452.02C613.583 452.255 614.46 452.555 615.312 452.917ZM610.062 441.927C610.062 442.243 609.806 442.5 609.489 442.5L602.761 442.5C602.444 442.5 602.188 442.243 602.188 441.927L602.188 437.714C602.19 437.459 602.396 437.252 602.651 437.25L609.432 437.25C609.778 437.248 610.06 437.526 610.062 437.871 610.062 437.874 610.062 437.877 610.062 437.88Z" fill="#FFFFFF"/><path d="M603.062 438.125 609.188 438.125 609.188 441.625 603.062 441.625Z" fill="#FFFFFF"/><path d="M581.188 434.625 583.375 434.625 583.375 435.5 581.188 435.5Z" fill="#FFFFFF"/><path d="M584.18 433.024 582.657 431.471 583.279 430.836 584.797 432.389 584.18 433.024Z" fill="#FFFFFF"/><path d="M589.5 435.115C589.5 436.565 588.325 437.74 586.875 437.74 585.425 437.74 584.25 436.565 584.25 435.115 584.25 433.665 585.425 432.49 586.875 432.49 588.325 432.49 589.5 433.665 589.5 435.115Z" fill="#FFFFFF"/><path d="M586.438 429.375 587.312 429.375 587.312 431.562 586.438 431.562Z" fill="#FFFFFF"/><path d="M590.375 434.625 592.562 434.625 592.562 435.5 590.375 435.5Z" fill="#FFFFFF"/><path d="M589.57 433.024 591.093 431.471 590.471 430.836 588.953 432.389 589.57 433.024Z" fill="#FFFFFF"/><path d="M584.18 437.149 582.657 438.707 583.279 439.337 584.797 437.784 584.18 437.149Z" fill="#FFFFFF"/><path d="M586.438 438.615 587.312 438.615 587.312 440.802 586.438 440.802Z" fill="#FFFFFF"/><path d="M589.57 437.149 591.093 438.707 590.471 439.337 588.953 437.784 589.57 437.149Z" fill="#FFFFFF"/><path d="M606.562 451.25C607.511 451.251 608.459 451.305 609.402 451.412L606.125 449.5 602.984 451.499C604.169 451.333 605.365 451.25 606.562 451.25Z" fill="#FFFFFF"/><path d="M584.508 456.938C591.508 456.5 595.174 454.312 595.446 454.186 595.778 453.955 596.123 453.741 596.478 453.547 591.075 448.026 581.188 448.686 581.188 448.686L581.188 456.938Z" fill="#FFFFFF"/><path d="M618.812 456.522 617.264 455.52C614.796 453.656 610.784 452.562 606.562 452.562 602.459 452.562 598.661 453.564 596.167 455.297 596.124 455.328 592.278 457.777 584.569 458.268L581.188 458.268 581.188 462.205 618.812 462.205Z" fill="#FFFFFF"/></g></svg>