<svg width="42" height="42" xmlns="http://www.w3.org/2000/svg" xmlns:xlink="http://www.w3.org/1999/xlink" overflow="hidden"><defs><clipPath id="clip0"><rect x="573" y="21" width="42" height="42"/></clipPath></defs><g clip-path="url(#clip0)" transform="translate(-573 -21)"><path d="M594.122 56C596.041 54.4855 597.871 52.8626 599.604 51.1394 602.117 48.7456 604.339 46.0642 606.224 43.1506 607.974 40.3331 609.645 36.6756 608.494 33.3331 607.562 30.5681 604.977 28.2188 602.006 27.9344 598.253 27.5625 595.536 30.7388 594 33.7794 592.596 30.9969 590.273 28.1269 586.917 27.9169 583.938 27.7331 581.164 29.8288 579.882 32.4319 578.276 35.7 579.584 39.375 581.273 42.3106 583.023 45.3731 585.351 48.0638 587.809 50.5531 589.748 52.5361 591.816 54.3879 594 56.0963ZM587 41.125 588.312 37.1875 589.091 34.8469C589.292 34.2388 589.603 33.425 590.443 33.775 590.951 33.9894 590.981 34.5144 591.069 34.9738L591.432 36.9119 592.482 42.5119 593.177 46.2306 595.715 39.5194 596.275 38.0406C596.437 37.6031 596.603 37.1656 597.15 37.1175 597.846 37.0475 598.051 37.6425 598.204 38.1675L598.742 40.0137 599.81 43.6844 600.864 42.525C601.202 42.0837 601.581 41.6763 601.997 41.3088 602.435 41.0025 603.244 41.1425 603.747 41.1425L605.375 41.1425C605.051 41.7244 604.693 42.3106 604.303 42.8925L602.881 42.8925C601.949 43.9206 601.057 45.0144 600.068 45.99 599.758 46.3606 599.206 46.4097 598.836 46.0995 598.763 46.0385 598.7 45.9661 598.651 45.885 598.556 45.6968 598.486 45.4967 598.445 45.29L597.714 42.7919 597.119 40.7444C596.004 43.6888 594.932 46.6375 593.781 49.5688 593.717 49.8075 593.577 50.0193 593.383 50.1725 592.985 50.4461 592.44 50.345 592.167 49.9467 592.097 49.8449 592.049 49.7296 592.027 49.6081 591.926 49.2056 591.874 48.7856 591.795 48.3831L590.688 42.4769 589.861 38.0625 588.628 41.7681C588.439 42.3194 588.291 42.8575 587.582 42.8925 586.939 42.9231 586.291 42.8925 585.653 42.8925L583.684 42.8925C583.299 42.3106 582.936 41.7244 582.612 41.1425Z" fill="#FFFFFF"/></g></svg>