<svg width="42" height="42" xmlns="http://www.w3.org/2000/svg" xmlns:xlink="http://www.w3.org/1999/xlink" overflow="hidden"><defs><clipPath id="clip0"><rect x="569" y="221" width="42" height="42"/></clipPath></defs><g clip-path="url(#clip0)" transform="translate(-569 -221)"><path d="M604 249.419C603.977 248.135 603.377 246.929 602.367 246.135 600.731 244.797 598.809 243.971 596.791 243.248L594.648 242.368C594.483 242.302 594.376 242.142 594.375 241.965L594.375 240.894C595.974 239.613 596.93 237.696 596.99 235.648L598.148 233.661C598.315 233.267 598.382 232.838 598.344 232.411 598.09 229.544 596.351 227.02 593.763 225.761 593.554 225.663 593.309 225.685 593.121 225.819L592.679 226.125 592.191 225.457C592.04 225.246 591.814 225.102 591.559 225.055 591.104 224.976 590.642 224.937 590.18 224.938 586.239 224.937 582.856 227.741 582.125 231.614L582.107 231.709C581.895 232.845 581.455 233.927 580.814 234.888L583.001 234.888 583.001 235.438C583.002 237.559 583.967 239.566 585.623 240.891L585.623 241.965C585.623 242.143 585.516 242.303 585.352 242.37L583.195 243.255C581.182 243.975 579.269 244.799 577.65 246.123 576.627 246.922 576.021 248.14 576 249.438L576 257.124 576.389 257.384C578.536 258.815 584.349 259.528 590.121 259.528 595.94 259.528 601.718 258.802 603.646 257.355L603.996 257.093ZM596.346 248.125C596.829 248.125 597.221 248.517 597.221 249 597.221 249.483 596.829 249.875 596.346 249.875 595.863 249.875 595.471 249.483 595.471 249 595.471 248.517 595.863 248.125 596.346 248.125ZM584.75 235.438 584.75 234.888 587.839 234.888C592.336 234.888 591.725 231.304 593.693 230.791 594.219 230.691 594.763 230.757 595.25 230.98L595.25 235.438C595.25 238.337 592.899 240.688 590 240.688 587.101 240.688 584.75 238.337 584.75 235.438ZM590 242.438C590.9 242.437 591.792 242.262 592.625 241.923L592.625 241.966C592.624 242.644 592.94 243.283 593.478 243.695 592.35 244.034 591.177 244.2 590 244.188 588.822 244.2 587.649 244.033 586.521 243.694 587.059 243.282 587.375 242.643 587.375 241.965L587.375 241.921C588.208 242.262 589.1 242.437 590 242.438ZM602.25 256.178C598.366 258.291 581.999 258.275 577.75 256.151L577.75 249.457C577.766 248.686 578.131 247.963 578.742 247.491 580.094 246.458 581.606 245.654 583.219 245.11L583.219 247.041C581.496 247.156 580.157 248.586 580.156 250.312 580.157 250.498 580.236 250.675 580.375 250.798L580.375 253.594C580.376 254.203 580.797 254.731 581.39 254.869 581.611 255.156 582.023 255.21 582.31 254.989 582.598 254.768 582.651 254.356 582.43 254.069 582.209 253.782 581.797 253.728 581.51 253.949 581.5 253.956 581.491 253.964 581.481 253.972 581.341 253.898 581.252 253.753 581.25 253.594L581.25 250.798C581.389 250.675 581.468 250.498 581.469 250.312 581.469 249.225 582.35 248.344 583.438 248.344L583.875 248.344C584.962 248.344 585.844 249.225 585.844 250.312 585.844 250.498 585.924 250.675 586.062 250.798L586.062 253.594C586.061 253.753 585.972 253.898 585.831 253.972 585.557 253.735 585.143 253.766 584.906 254.04 584.669 254.315 584.7 254.729 584.974 254.966 585.248 255.203 585.663 255.172 585.9 254.898 585.908 254.888 585.915 254.879 585.923 254.869 586.516 254.731 586.936 254.203 586.938 253.594L586.938 250.798C587.076 250.675 587.156 250.498 587.156 250.312 587.154 248.587 585.816 247.157 584.094 247.042L584.094 244.793C584.213 244.749 584.33 244.708 584.45 244.667 585.734 245.468 587.759 245.938 590 245.938 592.241 245.938 594.265 245.469 595.547 244.669 595.668 244.712 595.788 244.753 595.908 244.796L595.908 247.285C595.908 247.295 595.913 247.303 595.913 247.312 594.977 247.551 594.411 248.503 594.649 249.44 594.888 250.377 595.841 250.942 596.777 250.704 597.714 250.465 598.28 249.512 598.041 248.576 597.883 247.955 597.398 247.47 596.777 247.312 596.777 247.303 596.783 247.294 596.783 247.285L596.783 245.111C598.399 245.658 599.915 246.465 601.27 247.502 601.871 247.967 602.231 248.678 602.25 249.438Z" fill="#FFFFFF"/><path d="M596.783 249C596.783 249.242 596.588 249.438 596.346 249.438 596.104 249.438 595.908 249.242 595.908 249 595.908 248.758 596.104 248.562 596.346 248.562 596.588 248.562 596.783 248.758 596.783 249Z" fill="#FFFFFF"/></g></svg>