<svg width="41" height="41" xmlns="http://www.w3.org/2000/svg" xmlns:xlink="http://www.w3.org/1999/xlink" overflow="hidden"><defs><clipPath id="clip0"><rect x="573" y="324" width="41" height="41"/></clipPath></defs><g clip-path="url(#clip0)" transform="translate(-573 -324)"><path d="M593.5 330.833C585.941 330.833 579.833 336.941 579.833 344.5 579.833 352.059 585.941 358.167 593.5 358.167 601.059 358.167 607.167 352.059 607.167 344.5 607.167 336.941 601.059 330.833 593.5 330.833ZM593.5 360.729C584.531 360.729 577.271 353.469 577.271 344.5 577.271 335.531 584.531 328.271 593.5 328.271 602.469 328.271 609.729 335.531 609.729 344.5 609.729 353.469 602.469 360.729 593.5 360.729Z" fill="#FFFFFF"/><path d="M602.042 341.083 596.917 341.083 596.917 335.958C596.917 335.019 596.148 334.25 595.208 334.25L591.792 334.25C590.852 334.25 590.083 335.019 590.083 335.958L590.083 341.083 584.958 341.083C584.019 341.083 583.25 341.852 583.25 342.792L583.25 346.208C583.25 347.148 584.019 347.917 584.958 347.917L590.083 347.917 590.083 353.042C590.083 353.981 590.852 354.75 591.792 354.75L595.208 354.75C596.148 354.75 596.917 353.981 596.917 353.042L596.917 347.917 602.042 347.917C602.981 347.917 603.75 347.148 603.75 346.208L603.75 342.792C603.75 341.852 602.981 341.083 602.042 341.083Z" fill="#FFFFFF"/></g></svg>