<svg width="50" height="41" xmlns="http://www.w3.org/2000/svg" xmlns:xlink="http://www.w3.org/1999/xlink" overflow="hidden"><defs><clipPath id="clip0"><rect x="568" y="259" width="50" height="41"/></clipPath></defs><g clip-path="url(#clip0)" transform="translate(-568 -259)"><path d="M35.4479 10.6771C35.4479 11.8564 34.4919 12.8125 33.3125 12.8125 32.1331 12.8125 31.1771 11.8564 31.1771 10.6771 31.1771 9.49773 32.1331 8.54167 33.3125 8.54167 34.4919 8.54167 35.4479 9.49773 35.4479 10.6771Z" fill="#FFFFFF" transform="matrix(1.21951 0 0 1 568 259)"/><path d="M9.82292 10.6771C9.82292 11.8564 8.86686 12.8125 7.6875 12.8125 6.50814 12.8125 5.55208 11.8564 5.55208 10.6771 5.55208 9.49773 6.50814 8.54167 7.6875 8.54167 8.86686 8.54167 9.82292 9.49773 9.82292 10.6771Z" fill="#FFFFFF" transform="matrix(1.21951 0 0 1 568 259)"/><path d="M26.9062 10.6771C26.9062 11.8564 25.9502 12.8125 24.7708 12.8125 23.5915 12.8125 22.6354 11.8564 22.6354 10.6771 22.6354 9.49773 23.5915 8.54167 24.7708 8.54167 25.9502 8.54167 26.9062 9.49773 26.9062 10.6771Z" fill="#FFFFFF" transform="matrix(1.21951 0 0 1 568 259)"/><path d="M18.3646 10.6771C18.3646 11.8564 17.4085 12.8125 16.2292 12.8125 15.0498 12.8125 14.0938 11.8564 14.0938 10.6771 14.0938 9.49773 15.0498 8.54167 16.2292 8.54167 17.4085 8.54167 18.3646 9.49773 18.3646 10.6771Z" fill="#FFFFFF" transform="matrix(1.21951 0 0 1 568 259)"/><path d="M38.3948 21.1406 37.0281 14.9052C36.9854 14.7344 36.9 14.5635 36.7292 14.4354 36.2167 14.051 35.6615 13.7094 35.0208 13.5385 34.4656 13.3677 33.9104 13.2396 33.3125 13.2396 32.7146 13.2396 32.1167 13.325 31.6042 13.5385 30.9635 13.7521 30.4083 14.051 29.8958 14.4354 29.725 14.5635 29.6396 14.7344 29.5969 14.9052L29.0417 17.425 29.0417 17.425 28.4865 14.9052C28.4438 14.7344 28.3583 14.5635 28.1875 14.4354 27.675 14.051 27.1198 13.7094 26.4792 13.5385 25.924 13.3677 25.3688 13.2396 24.7708 13.2396 24.1729 13.2396 23.575 13.325 23.0625 13.5385 22.4219 13.7521 21.8667 14.051 21.3542 14.4354 21.1833 14.5635 21.0979 14.7344 21.0552 14.9052L20.5 17.3823 20.5 17.425 19.9448 14.9052C19.9021 14.7344 19.8167 14.5635 19.6458 14.4354 19.1333 14.051 18.5781 13.7094 17.9375 13.5385 17.3823 13.3677 16.8271 13.2396 16.2292 13.2396 15.6312 13.2396 15.0333 13.325 14.5208 13.5385 13.8802 13.7521 13.325 14.051 12.8125 14.4354 12.6417 14.5635 12.5563 14.7344 12.5135 14.9052L11.9583 17.3823 11.9583 17.3823 11.4031 14.9052C11.3604 14.7344 11.275 14.5635 11.1042 14.4354 10.5917 14.051 10.0365 13.7094 9.39583 13.5385 8.84063 13.3677 8.28542 13.2396 7.6875 13.2396 7.08958 13.2396 6.49167 13.325 5.97917 13.5385 5.33854 13.7521 4.78333 14.051 4.27083 14.4354 4.1 14.5635 4.01458 14.7344 3.97188 14.9052L2.60521 21.0979C2.47708 21.5677 2.77604 22.0802 3.28854 22.1656 3.33125 22.1656 3.37396 22.1656 3.41667 22.1656 3.80104 22.1656 4.14271 21.9094 4.27083 21.4823L5.55208 15.8021 5.55208 18.8344 4.27083 25.1979 5.55208 25.1979 5.55208 32.4583 7.26042 32.4583 7.26042 25.1979 8.11458 25.1979 8.11458 32.4583 9.82292 32.4583 9.82292 25.1979 11.1042 25.1979 9.82292 18.8344 9.82292 15.8021 11.1042 21.525C11.1896 21.9094 11.5312 22.2083 11.9156 22.2083L11.9156 22.2083C12.3 22.2083 12.6417 21.9521 12.7271 21.525L14.0938 15.8021 14.0938 22.6354 14.0938 32.4583 15.8021 32.4583 15.8021 22.6354 16.6562 22.6354 16.6562 32.4583 18.3646 32.4583 18.3646 22.6354 18.3646 15.8021 19.6458 21.525C19.7313 21.9094 20.0729 22.2083 20.5 22.2083 20.5 22.2083 20.5 22.2083 20.5 22.2083L20.5 22.2083C20.8844 22.2083 21.226 21.9521 21.3115 21.525L22.6354 15.8021 22.6354 18.8771 21.3542 25.1979 22.6354 25.1979 22.6354 32.4583 24.3438 32.4583 24.3438 25.1979 25.1979 25.1979 25.1979 32.4583 26.9062 32.4583 26.9062 25.1979 28.1875 25.1979 26.9062 18.7917 26.9062 15.8021 28.1875 21.525C28.2729 21.9094 28.6146 22.2083 29.0417 22.2083 29.0417 22.2083 29.0417 22.2083 29.0417 22.2083L29.0417 22.2083C29.0417 22.2083 29.0417 22.2083 29.0417 22.2083 29.426 22.2083 29.7677 21.9521 29.8958 21.525L31.1771 15.8021 31.1771 22.6354 31.1771 32.4583 32.8854 32.4583 32.8854 22.6354 33.7396 22.6354 33.7396 32.4583 35.4479 32.4583 35.4479 22.6354 35.4479 15.8021 36.7292 21.525C36.8146 21.9094 37.1562 22.2083 37.5833 22.2083 37.6688 22.2083 37.7969 22.2083 37.8823 22.1656 38.2667 21.9948 38.4802 21.5677 38.3948 21.1406Z" fill="#FFFFFF" transform="matrix(1.21951 0 0 1 568 259)"/></g></svg>