<svg width="41" height="42" xmlns="http://www.w3.org/2000/svg" xmlns:xlink="http://www.w3.org/1999/xlink" overflow="hidden"><defs><clipPath id="clip0"><rect x="568" y="368" width="41" height="42"/></clipPath></defs><g clip-path="url(#clip0)" transform="translate(-568 -368)"><path d="M7.26042 4.69792 9.82292 4.69792 9.82292 36.3021 7.26042 36.3021Z" fill="#FFFFFF" transform="matrix(1 0 0 1.02439 568 368)"/><path d="M31.6042 4.69792 11.5312 4.69792 11.5312 36.3021 31.6042 36.3021C32.5438 36.3021 33.3125 35.5333 33.3125 34.5938L33.3125 6.40625C33.3125 5.46667 32.5438 4.69792 31.6042 4.69792ZM18.8344 16.699C18.8344 14.9052 20.2865 13.4531 22.0802 13.4531 23.874 13.4531 25.326 14.9052 25.326 16.699 25.326 18.4927 23.874 19.9448 22.0802 19.9448 20.2865 19.9448 18.8344 18.5354 18.8344 16.699ZM28.6146 27.3333 15.5458 27.3333 15.5458 24.0875C15.5458 23.575 15.8021 23.1052 16.1865 22.7635 17.1688 22.0802 18.2365 21.525 19.3896 21.226 20.2865 20.9698 21.1833 20.8417 22.0802 20.799 22.9771 20.799 23.9167 20.9271 24.7708 21.226 25.924 21.525 26.9917 22.0375 27.974 22.7635 28.3583 23.0625 28.6146 23.575 28.6146 24.0875L28.6146 27.3333Z" fill="#FFFFFF" transform="matrix(1 0 0 1.02439 568 368)"/></g></svg>