<svg width="41" height="42" xmlns="http://www.w3.org/2000/svg" xmlns:xlink="http://www.w3.org/1999/xlink" overflow="hidden"><defs><clipPath id="clip0"><rect x="574" y="69" width="41" height="42"/></clipPath></defs><g clip-path="url(#clip0)" transform="translate(-574 -69)"><path d="M26.9062 13.3592 19.2188 6.03896 19.2188 6.03896 3.84375 20.6666 5.5051 22.0845 19.2188 9.05844 19.2188 9.05844 26.3553 15.8405C26.4854 15.0024 26.6694 14.1736 26.9062 13.3592Z" fill="#FFFFFF" transform="matrix(1 0 0 1.02439 574 69)"/><path d="M33.7396 32.0312 33.7396 23.4084C36.3021 22.9472 38.224 20.4616 38.224 16.921 38.224 12.9919 34.1667 4.86875 32.8854 4.86875 31.6042 4.86875 27.5469 12.9833 27.5469 16.921 27.5469 20.4616 29.4901 22.9472 32.0312 23.4084L32.0312 32.0312 30.3229 32.0312 30.3229 24.1985C28.0594 23.1351 26.4792 20.6708 26.2913 17.5958L19.2188 11.1042 8.11458 21.2986 8.11458 32.0312 5.55208 32.0312 5.55208 31.3949 6.27385 31.3949C6.57239 31.3922 6.82774 31.1797 6.88458 30.8867L6.88458 30.8867C7.00694 30.3466 7.2725 29.8494 7.65333 29.4474 7.70659 29.3973 7.70911 29.3135 7.65901 29.2603 7.62369 29.2228 7.56984 29.2091 7.52094 29.2253 6.77474 29.3994 6.09251 29.7797 5.55208 30.3229L5.55208 29.1271C7.45687 28.811 6.40625 26.3297 6.40625 26.3297 6.37033 26.266 6.28957 26.2435 6.22589 26.2794 6.20488 26.2913 6.1875 26.3087 6.17563 26.3297L5.71865 27.107 5.26167 26.3297C5.23643 26.2877 5.19111 26.2618 5.14208 26.2614 5.09459 26.2632 5.05124 26.2889 5.02677 26.3297L4.56979 27.107 4.09573 26.3297C4.05713 26.2648 3.97326 26.2435 3.9084 26.2821 3.88883 26.2938 3.87248 26.3101 3.86083 26.3297 3.86083 26.3297 2.7974 28.8068 4.715 29.1271L4.715 30.2973C4.17298 29.7651 3.49467 29.3927 2.75469 29.221 2.68528 29.198 2.61036 29.2356 2.58736 29.305 2.57115 29.354 2.58478 29.4078 2.62229 29.4431 3.00453 29.8442 3.27029 30.3417 3.39104 30.8824L3.39104 30.8824C3.44789 31.1755 3.70325 31.388 4.00177 31.3906L4.69792 31.3906 4.69792 32.0312 1.28125 32.0312 1.28125 34.5938 39.2917 34.5938 39.2917 32.0312ZM14.9479 27.3333 10.6771 27.3333 10.6771 23.0625 14.9479 23.0625ZM21.3542 32.0312 17.0833 32.0312 17.0833 23.0625 21.3542 23.0625ZM27.7604 27.3333 23.4896 27.3333 23.4896 23.0625 27.7604 23.0625Z" fill="#FFFFFF" transform="matrix(1 0 0 1.02439 574 69)"/></g></svg>