<svg width="41" height="42" xmlns="http://www.w3.org/2000/svg" xmlns:xlink="http://www.w3.org/1999/xlink" overflow="hidden"><defs><clipPath id="clip0"><rect x="574" y="313" width="41" height="42"/></clipPath></defs><g clip-path="url(#clip0)" transform="translate(-574 -313)"><path d="M18.0784 26.9062C20.8034 25.4923 23.8366 24.7762 26.9062 24.8221L27.0856 24.8221C24.7705 22.9622 21.9098 21.9121 18.9411 21.8325 16.9663 21.8258 15.0141 22.253 13.2225 23.0839 15.0892 24.0066 16.7431 25.3084 18.0784 26.9062Z" fill="#FFFFFF" transform="matrix(1 0 0 1.02439 574 313)"/><path d="M5.34281 31.6042C12.1505 31.066 15.6996 28.5206 15.9345 28.3498 16.2635 28.0694 16.6086 27.8084 16.968 27.5682 11.7021 21.478 2.13542 22.2083 2.13542 22.2083L2.13542 31.7366Z" fill="#FFFFFF" transform="matrix(1 0 0 1.02439 574 313)"/><path d="M37.3527 29.6439C37.0225 29.3354 36.6715 29.05 36.3021 28.7897L36.3021 23.7885C37.7493 23.2876 38.7016 21.9025 38.651 20.3719 38.651 18.2365 36.1398 13.4617 35.4479 13.4617 34.756 13.4617 32.2448 18.2535 32.2448 20.3719 32.1943 21.9025 33.1465 23.2876 34.5938 23.7885L34.5938 27.7946C32.9769 27.0199 31.2468 26.5081 29.4688 26.2784L29.4688 17.835C31.4504 17.4079 32.9452 15.4006 32.9452 12.6032 32.9452 9.41719 29.6524 2.5625 28.6146 2.5625 27.5768 2.5625 24.284 9.41719 24.284 12.6032 24.284 15.4006 25.7788 17.3908 27.7604 17.835L27.7604 26.1247C27.47 26.1247 27.1796 26.1033 26.9062 26.1033 22.9002 26.1033 19.1931 27.2949 16.7588 29.362 16.716 29.3919 12.962 32.3089 5.43677 32.894L2.13542 32.8854 2.13542 37.5833 38.8646 37.5833 38.8646 30.8397Z" fill="#FFFFFF" transform="matrix(1 0 0 1.02439 574 313)"/><path d="M6.83333 7.6875 8.96875 7.6875 8.96875 8.54167 6.83333 8.54167Z" fill="#FFFFFF" transform="matrix(1 0 0 1.02439 574 313)"/><path d="M9.75458 6.12438 8.26833 4.60823 8.87479 3.98896 10.3568 5.5051 9.75458 6.12438Z" fill="#FFFFFF" transform="matrix(1 0 0 1.02439 574 313)"/><path d="M14.9479 8.16583C14.9479 9.58106 13.8006 10.7283 12.3854 10.7283 10.9702 10.7283 9.82292 9.58106 9.82292 8.16583 9.82292 6.7506 10.9702 5.60333 12.3854 5.60333 13.8006 5.60333 14.9479 6.7506 14.9479 8.16583Z" fill="#FFFFFF" transform="matrix(1 0 0 1.02439 574 313)"/><path d="M11.9583 2.5625 12.8125 2.5625 12.8125 4.69792 11.9583 4.69792Z" fill="#FFFFFF" transform="matrix(1 0 0 1.02439 574 313)"/><path d="M15.8021 7.6875 17.9375 7.6875 17.9375 8.54167 15.8021 8.54167Z" fill="#FFFFFF" transform="matrix(1 0 0 1.02439 574 313)"/><path d="M15.0163 6.12438 16.5025 4.60823 15.896 3.98896 14.4141 5.5051 15.0163 6.12438Z" fill="#FFFFFF" transform="matrix(1 0 0 1.02439 574 313)"/><path d="M9.75458 10.1518 8.26833 11.6722 8.87479 12.2872 10.3568 10.771 9.75458 10.1518Z" fill="#FFFFFF" transform="matrix(1 0 0 1.02439 574 313)"/><path d="M11.9583 11.5825 12.8125 11.5825 12.8125 13.7179 11.9583 13.7179Z" fill="#FFFFFF" transform="matrix(1 0 0 1.02439 574 313)"/><path d="M15.0163 10.1518 16.5025 11.6722 15.896 12.2872 14.4141 10.771 15.0163 10.1518Z" fill="#FFFFFF" transform="matrix(1 0 0 1.02439 574 313)"/></g></svg>