<svg width="41" height="41" xmlns="http://www.w3.org/2000/svg" xmlns:xlink="http://www.w3.org/1999/xlink" overflow="hidden"><defs><clipPath id="clip0"><rect x="575" y="164" width="41" height="41"/></clipPath></defs><g clip-path="url(#clip0)" transform="translate(-575 -164)"><path d="M588.91 191.154 589.803 187.823 589.666 187.31C589.526 187.341 589.383 187.359 589.239 187.361 589.046 187.368 588.852 187.343 588.667 187.289 588.149 187.157 587.705 186.827 587.428 186.371 587.117 185.843 587.026 185.214 587.176 184.62L589.094 177.53 589.094 177.504 589.094 177.483C589.205 177.157 589.371 176.852 589.585 176.582 588.872 175.971 588.05 175.499 587.163 175.19 585.669 174.677 584.046 174.677 582.551 175.19 581.428 175.562 580.415 176.208 579.604 177.069 579.434 177.271 579.302 177.503 579.215 177.752L577.298 184.842C577.094 185.532 577.488 186.256 578.178 186.46 578.184 186.461 578.189 186.463 578.195 186.465 578.305 186.5 578.421 186.514 578.536 186.507 579.11 186.497 579.612 186.117 579.779 185.568L581.487 179.332 581.487 182.279 581.487 182.279 579.049 191.376 581.487 191.376 581.487 201.071 584.05 201.071 584.05 191.376 585.758 191.376 585.758 201.028 588.321 201.028 588.321 191.376 588.85 191.376Z" fill="#FFFFFF"/><path d="M613.792 184.842 611.87 177.752C611.794 177.499 611.663 177.265 611.486 177.069 610.667 176.217 609.657 175.572 608.539 175.19 607.044 174.677 605.421 174.677 603.926 175.19 603.034 175.488 602.21 175.96 601.501 176.578 601.718 176.848 601.886 177.154 601.996 177.483L601.996 177.504 601.996 177.53 603.922 184.637C604.218 185.745 603.614 186.895 602.534 187.28 602.342 187.341 602.141 187.368 601.94 187.361 601.797 187.359 601.654 187.341 601.513 187.31L601.377 187.823 602.269 191.154 602.329 191.376 602.863 191.376 602.863 201.071 605.425 201.071 605.425 191.376 607.134 191.376 607.134 201.028 609.696 201.028 609.696 191.376 612.131 191.376 609.696 182.283 609.696 179.332 611.405 185.568C611.57 186.117 612.07 186.496 612.643 186.507 612.759 186.514 612.875 186.5 612.985 186.465 613.625 186.206 613.972 185.509 613.792 184.842Z" fill="#FFFFFF"/><path d="M603.106 184.842 601.185 177.752C601.109 177.499 600.977 177.265 600.8 177.069 599.982 176.217 598.971 175.572 597.853 175.19 596.358 174.677 594.736 174.677 593.241 175.19 592.118 175.562 591.105 176.208 590.294 177.069 590.122 177.27 589.991 177.502 589.905 177.752L587.983 184.842C587.78 185.532 588.174 186.256 588.864 186.46 588.869 186.461 588.875 186.463 588.88 186.465 588.99 186.5 589.106 186.514 589.222 186.507 589.796 186.497 590.298 186.117 590.465 185.568L592.173 179.332 592.173 182.279 592.173 182.279 589.734 191.376 592.173 191.376 592.173 201.071 594.736 201.071 594.736 191.376 596.444 191.376 596.444 201.028 599.006 201.028 599.006 191.376 601.441 191.376 599.006 182.283 599.006 179.332 600.715 185.568C600.88 186.117 601.38 186.496 601.953 186.507 602.069 186.514 602.185 186.5 602.295 186.465 602.937 186.207 603.286 185.51 603.106 184.842Z" fill="#FFFFFF"/><path d="M609.167 170.919C609.167 172.57 607.828 173.908 606.177 173.908 604.526 173.908 603.188 172.57 603.188 170.919 603.188 169.268 604.526 167.929 606.177 167.929 607.828 167.929 609.167 169.268 609.167 170.919Z" fill="#FFFFFF"/><path d="M587.812 170.919C587.812 172.57 586.474 173.908 584.823 173.908 583.172 173.908 581.833 172.57 581.833 170.919 581.833 169.268 583.172 167.929 584.823 167.929 586.474 167.929 587.812 169.268 587.812 170.919Z" fill="#FFFFFF"/><path d="M598.49 170.919C598.49 172.57 597.151 173.908 595.5 173.908 593.849 173.908 592.51 172.57 592.51 170.919 592.51 169.268 593.849 167.929 595.5 167.929 597.151 167.929 598.49 169.268 598.49 170.919Z" fill="#FFFFFF"/></g></svg>