<svg width="41" height="42" xmlns="http://www.w3.org/2000/svg" xmlns:xlink="http://www.w3.org/1999/xlink" overflow="hidden"><defs><clipPath id="clip0"><rect x="575" y="265" width="41" height="42"/></clipPath></defs><g clip-path="url(#clip0)" transform="translate(-575 -265)"><path d="M20.5 9.31042 26.65 15.5031 27.8458 14.3073 20.5 7.26042 12.9833 14.4354 14.1792 15.6312Z" fill="#FFFFFF" transform="matrix(1 0 0 1.02439 575 265)"/><path d="M34.1667 24.7281 30.75 24.7281 30.75 21.3115 34.1667 21.3115 34.1667 24.7281ZM34.1667 29.8531 30.75 29.8531 30.75 26.4365 34.1667 26.4365 34.1667 29.8531ZM29.0417 24.7281 25.625 24.7281 25.625 21.3115 29.0417 21.3115 29.0417 24.7281ZM29.0417 29.8531 25.625 29.8531 25.625 26.4365 29.0417 26.4365 29.0417 29.8531ZM23.4896 24.7281 17.5104 24.7281 17.5104 23.0198 23.4896 23.0198 23.4896 24.7281ZM20.5 16.6135C21.226 16.6135 21.7812 17.1688 21.7812 17.8948 21.7812 18.6208 21.226 19.176 20.5 19.176 19.774 19.176 19.2188 18.6208 19.2188 17.8948 19.2188 17.1688 19.774 16.6135 20.5 16.6135ZM15.375 24.7281 11.9583 24.7281 11.9583 21.3115 15.375 21.3115 15.375 24.7281ZM15.375 29.8531 11.9583 29.8531 11.9583 26.4365 15.375 26.4365 15.375 29.8531ZM10.25 24.7281 6.83333 24.7281 6.83333 21.3115 10.25 21.3115 10.25 24.7281ZM10.25 29.8531 6.83333 29.8531 6.83333 26.4365 10.25 26.4365 10.25 29.8531ZM25.625 19.176 25.625 16.6135 20.5 11.4885 15.375 16.6135 15.375 19.176 5.125 19.176 5.125 33.6969 17.5104 33.6969 17.5104 28.999C17.5104 27.8031 18.3646 26.4365 20.5 26.4365 22.6354 26.4365 23.4896 27.8031 23.4896 28.999L23.4896 33.6969 35.875 33.6969 35.875 19.176 25.625 19.176Z" fill="#FFFFFF" transform="matrix(1 0 0 1.02439 575 265)"/></g></svg>