<svg width="41" height="41" xmlns="http://www.w3.org/2000/svg" xmlns:xlink="http://www.w3.org/1999/xlink" overflow="hidden"><defs><clipPath id="clip0"><rect x="573" y="405" width="41" height="41"/></clipPath></defs><g clip-path="url(#clip0)" transform="translate(-573 -405)"><path d="M593.5 441.857C590.724 441.857 588.29 439.893 587.692 437.202 587.051 434.469 588.418 431.693 590.938 430.497L590.938 411.705C590.938 410.296 592.091 409.143 593.5 409.143 594.909 409.143 596.062 410.296 596.062 411.705L596.062 430.497C598.582 431.693 599.906 434.469 599.308 437.202 598.668 439.893 596.276 441.815 593.5 441.857L593.5 441.857ZM598.625 429.045 598.625 411.705C598.625 408.886 596.319 406.58 593.5 406.58 590.681 406.58 588.375 408.844 588.375 411.705L588.375 429.045C585.428 431.266 584.232 435.109 585.385 438.569 586.539 442.071 589.827 444.42 593.5 444.42 597.173 444.42 600.461 442.071 601.615 438.569 602.768 435.109 601.572 431.266 598.625 429.045Z" fill="#FFFFFF"/><path d="M594.354 431.693 594.354 421.357 592.646 421.357 592.646 431.693C590.51 432.12 589.016 434.127 589.272 436.305 589.485 438.483 591.322 440.149 593.5 440.149 595.678 440.149 597.515 438.483 597.728 436.305 597.984 434.127 596.49 432.12 594.354 431.693Z" fill="#FFFFFF"/></g></svg>