<svg width="41" height="42" xmlns="http://www.w3.org/2000/svg" xmlns:xlink="http://www.w3.org/1999/xlink" overflow="hidden"><defs><clipPath id="clip0"><rect x="574" y="69" width="41" height="42"/></clipPath></defs><g clip-path="url(#clip0)" transform="translate(-574 -69)"><path d="M20.5009 5.125 20.5 5.125 2.56335 22.1883 4.50231 23.8453 20.5 8.64844 20.5009 8.64844 36.4985 23.8453 38.4375 22.1883 20.5009 5.125Z" fill="#FFFFFF" transform="matrix(1 0 0 1.02439 574 69)"/><path d="M20.5 11.0042 7.6875 23.1761 7.6875 35.875 33.3125 35.875 33.3125 23.1753ZM20.5 32.2576C20.5 32.2576 14.5208 27.6852 14.5208 23.9923 14.5208 21.5301 18.2839 18.8925 20.5 23.2889 22.7157 18.8925 26.4792 21.5301 26.4792 23.9923 26.4792 27.6852 20.5 32.2576 20.5 32.2576Z" fill="#FFFFFF" transform="matrix(1 0 0 1.02439 574 69)"/></g></svg>