<svg width="49" height="42" xmlns="http://www.w3.org/2000/svg" xmlns:xlink="http://www.w3.org/1999/xlink" overflow="hidden"><defs><clipPath id="clip0"><rect x="570" y="70" width="49" height="42"/></clipPath></defs><g clip-path="url(#clip0)" transform="translate(-570 -70)"><path d="M36.3125 10.9375C36.3125 12.1456 35.3331 13.125 34.125 13.125 32.9169 13.125 31.9375 12.1456 31.9375 10.9375 31.9375 9.72938 32.9169 8.75 34.125 8.75 35.3331 8.75 36.3125 9.72938 36.3125 10.9375Z" fill="#FFFFFF" transform="matrix(1.16667 0 0 1 570 70)"/><path d="M10.0625 10.9375C10.0625 12.1456 9.08312 13.125 7.875 13.125 6.66688 13.125 5.6875 12.1456 5.6875 10.9375 5.6875 9.72938 6.66688 8.75 7.875 8.75 9.08312 8.75 10.0625 9.72938 10.0625 10.9375Z" fill="#FFFFFF" transform="matrix(1.16667 0 0 1 570 70)"/><path d="M27.5625 10.9375C27.5625 12.1456 26.5831 13.125 25.375 13.125 24.1669 13.125 23.1875 12.1456 23.1875 10.9375 23.1875 9.72938 24.1669 8.75 25.375 8.75 26.5831 8.75 27.5625 9.72938 27.5625 10.9375Z" fill="#FFFFFF" transform="matrix(1.16667 0 0 1 570 70)"/><path d="M18.8125 10.9375C18.8125 12.1456 17.8331 13.125 16.625 13.125 15.4169 13.125 14.4375 12.1456 14.4375 10.9375 14.4375 9.72938 15.4169 8.75 16.625 8.75 17.8331 8.75 18.8125 9.72938 18.8125 10.9375Z" fill="#FFFFFF" transform="matrix(1.16667 0 0 1 570 70)"/><path d="M39.3312 21.6562 37.9312 15.2688C37.8875 15.0938 37.8 14.9187 37.625 14.7875 37.1 14.3938 36.5312 14.0437 35.875 13.8688 35.3062 13.6937 34.7375 13.5625 34.125 13.5625 33.5125 13.5625 32.9 13.65 32.375 13.8688 31.7188 14.0875 31.15 14.3938 30.625 14.7875 30.45 14.9187 30.3625 15.0938 30.3188 15.2688L29.75 17.85 29.75 17.85 29.1812 15.2688C29.1375 15.0938 29.05 14.9187 28.875 14.7875 28.35 14.3938 27.7812 14.0437 27.125 13.8688 26.5562 13.6937 25.9875 13.5625 25.375 13.5625 24.7625 13.5625 24.15 13.65 23.625 13.8688 22.9688 14.0875 22.4 14.3938 21.875 14.7875 21.7 14.9187 21.6125 15.0938 21.5688 15.2688L21 17.8062 21 17.85 20.4312 15.2688C20.3875 15.0938 20.3 14.9187 20.125 14.7875 19.6 14.3938 19.0312 14.0437 18.375 13.8688 17.8062 13.6937 17.2375 13.5625 16.625 13.5625 16.0125 13.5625 15.4 13.65 14.875 13.8688 14.2188 14.0875 13.65 14.3938 13.125 14.7875 12.95 14.9187 12.8625 15.0938 12.8187 15.2688L12.25 17.8062 12.25 17.8062 11.6813 15.2688C11.6375 15.0938 11.55 14.9187 11.375 14.7875 10.85 14.3938 10.2812 14.0437 9.625 13.8688 9.05625 13.6937 8.4875 13.5625 7.875 13.5625 7.2625 13.5625 6.65 13.65 6.125 13.8688 5.46875 14.0875 4.9 14.3938 4.375 14.7875 4.2 14.9187 4.1125 15.0938 4.06875 15.2688L2.66875 21.6125C2.5375 22.0938 2.84375 22.6187 3.36875 22.7063 3.4125 22.7063 3.45625 22.7063 3.5 22.7063 3.89375 22.7063 4.24375 22.4438 4.375 22.0063L5.6875 16.1875 5.6875 19.2937 4.375 25.8125 5.6875 25.8125 5.6875 33.25 7.4375 33.25 7.4375 25.8125 8.3125 25.8125 8.3125 33.25 10.0625 33.25 10.0625 25.8125 11.375 25.8125 10.0625 19.2937 10.0625 16.1875 11.375 22.05C11.4625 22.4438 11.8125 22.75 12.2063 22.75L12.2063 22.75C12.6 22.75 12.95 22.4875 13.0375 22.05L14.4375 16.1875 14.4375 23.1875 14.4375 33.25 16.1875 33.25 16.1875 23.1875 17.0625 23.1875 17.0625 33.25 18.8125 33.25 18.8125 23.1875 18.8125 16.1875 20.125 22.05C20.2125 22.4438 20.5625 22.75 21 22.75 21 22.75 21 22.75 21 22.75L21 22.75C21.3938 22.75 21.7437 22.4875 21.8313 22.05L23.1875 16.1875 23.1875 19.3375 21.875 25.8125 23.1875 25.8125 23.1875 33.25 24.9375 33.25 24.9375 25.8125 25.8125 25.8125 25.8125 33.25 27.5625 33.25 27.5625 25.8125 28.875 25.8125 27.5625 19.25 27.5625 16.1875 28.875 22.05C28.9625 22.4438 29.3125 22.75 29.75 22.75 29.75 22.75 29.75 22.75 29.75 22.75L29.75 22.75C29.75 22.75 29.75 22.75 29.75 22.75 30.1438 22.75 30.4937 22.4875 30.625 22.05L31.9375 16.1875 31.9375 23.1875 31.9375 33.25 33.6875 33.25 33.6875 23.1875 34.5625 23.1875 34.5625 33.25 36.3125 33.25 36.3125 23.1875 36.3125 16.1875 37.625 22.05C37.7125 22.4438 38.0625 22.75 38.5 22.75 38.5875 22.75 38.7188 22.75 38.8062 22.7063 39.2 22.5312 39.4188 22.0938 39.3312 21.6562Z" fill="#FFFFFF" transform="matrix(1.16667 0 0 1 570 70)"/></g></svg>