<svg width="42" height="41" xmlns="http://www.w3.org/2000/svg" xmlns:xlink="http://www.w3.org/1999/xlink" overflow="hidden"><defs><clipPath id="clip0"><rect x="574" y="382" width="42" height="41"/></clipPath></defs><g clip-path="url(#clip0)" transform="translate(-574 -382)"><path d="M31.9458 9.31042C30.9208 9.31042 30.0667 8.45625 30.0667 7.43125 30.0667 6.40625 30.9208 5.55208 31.9458 5.55208 32.9708 5.55208 33.825 6.40625 33.825 7.43125L33.825 7.43125C33.825 8.45625 32.9708 9.31042 31.9458 9.31042 31.9458 9.31042 31.9458 9.31042 31.9458 9.31042ZM31.9458 2.98958C30.4938 2.98958 29.1271 3.71563 28.3156 4.91146 27.5042 6.10729 27.3333 7.64479 27.8458 9.01146L29.8531 13.4104 31.5615 17.0406C31.6896 17.2542 31.9458 17.3396 32.1167 17.2115 32.2021 17.1688 32.2448 17.126 32.2875 17.0406L33.9958 13.4104 36.0031 9.01146C36.5156 7.64479 36.3448 6.10729 35.5333 4.91146 34.7646 3.71563 33.3979 2.98958 31.9458 2.98958Z" fill="#FFFFFF" transform="matrix(1.02439 0 0 1 574 382)"/><path d="M10.1646 26.3938C8.88333 26.3938 7.81562 25.326 7.81562 24.0448 7.81562 22.7635 8.88333 21.6958 10.1646 21.6958 11.4458 21.6958 12.5135 22.7635 12.5135 24.0448 12.5135 24.0448 12.5135 24.0448 12.5135 24.0448 12.5135 25.326 11.4458 26.3938 10.1646 26.3938 10.1646 26.3938 10.1646 26.3938 10.1646 26.3938L10.1646 26.3938ZM10.1646 18.5781C8.37083 18.5781 6.6625 19.475 5.6375 20.9698 4.6125 22.4646 4.39896 24.3865 5.08229 26.0521L7.55938 31.5188 9.69479 36.0031C9.82292 36.2594 10.1646 36.3448 10.4208 36.2167 10.5063 36.174 10.5917 36.0885 10.6344 36.0031L12.7698 31.5188 15.2469 26.0521C15.8875 24.3865 15.674 22.4646 14.6917 20.9698 13.6667 19.475 11.9583 18.5781 10.1646 18.5781L10.1646 18.5781Z" fill="#FFFFFF" transform="matrix(1.02439 0 0 1 574 382)"/><path d="M16.1437 36.3021 15.0333 36.3021C14.5208 36.3021 14.051 36.3021 13.5813 36.3021L13.5813 33.7396C14.0083 33.7396 14.5208 33.7396 15.0333 33.7396L16.1437 33.7396 16.1437 36.3021Z" fill="#FFFFFF" transform="matrix(1.02439 0 0 1 574 382)"/><path d="M17.8948 36.3021 17.8948 33.7396C18.8344 33.7396 19.6458 33.7396 20.4146 33.6969L20.5 36.2594C19.6885 36.3021 18.8344 36.3021 17.8948 36.3021Z" fill="#FFFFFF" transform="matrix(1.02439 0 0 1 574 382)"/><path d="M22.2083 36.174 22.0802 33.6115C22.9771 33.5687 23.8313 33.526 24.5573 33.4406L24.8135 36.0031C24.0448 36.0885 23.1479 36.1312 22.2083 36.174L22.2083 36.174Z" fill="#FFFFFF" transform="matrix(1.02439 0 0 1 574 382)"/><path d="M26.6073 35.7896 26.2229 33.2698C27.0344 33.1417 27.8031 33.0135 28.5719 32.8L29.2552 35.2771C28.3583 35.4906 27.5042 35.6615 26.6073 35.7896Z" fill="#FFFFFF" transform="matrix(1.02439 0 0 1 574 382)"/><path d="M31.049 34.6365 30.024 32.2875C30.5792 32.1167 31.049 31.7323 31.3906 31.2625L33.6542 32.501C33.0135 33.4833 32.1167 34.2094 31.049 34.6365L31.049 34.6365Z" fill="#FFFFFF" transform="matrix(1.02439 0 0 1 574 382)"/><path d="M31.4333 30.4083C31.3479 29.8531 31.0917 29.2979 30.7073 28.9135L32.501 27.1198C33.3125 27.9313 33.825 28.9563 33.9531 30.1094L31.4333 30.4083Z" fill="#FFFFFF" transform="matrix(1.02439 0 0 1 574 382)"/><path d="M29.6396 28.1448C28.9563 27.8031 28.2302 27.5042 27.5042 27.2906L28.2302 24.8563C29.1271 25.1125 30.024 25.4542 30.8354 25.8813L29.6396 28.1448Z" fill="#FFFFFF" transform="matrix(1.02439 0 0 1 574 382)"/><path d="M25.8813 26.8635 25.1979 26.6927C24.6 26.5219 23.9594 26.3938 23.3615 26.2229L24.0448 23.7458C24.6 23.9167 25.1979 24.0448 25.7958 24.2156L26.4792 24.3865 25.8813 26.8635Z" fill="#FFFFFF" transform="matrix(1.02439 0 0 1 574 382)"/><path d="M21.6104 25.625C20.5854 25.2406 19.6458 24.6 18.9625 23.7458L21.0552 22.2938C21.4396 22.7635 21.9948 23.1052 22.55 23.276L21.6104 25.625Z" fill="#FFFFFF" transform="matrix(1.02439 0 0 1 574 382)"/><path d="M20.8844 21.4396 18.3219 21.2687C18.4073 20.0302 19.0906 18.9198 20.0729 18.1938L21.6531 20.201C20.8844 20.8417 20.8844 21.3115 20.8844 21.4396L20.8844 21.4396Z" fill="#FFFFFF" transform="matrix(1.02439 0 0 1 574 382)"/><path d="M22.849 19.5604 21.824 17.2115C22.6781 16.8271 23.575 16.5281 24.4719 16.3146L25.0698 18.7917C24.301 19.0052 23.575 19.2615 22.849 19.5604L22.849 19.5604Z" fill="#FFFFFF" transform="matrix(1.02439 0 0 1 574 382)"/><path d="M26.65 18.4927 26.2229 15.9729C27.3333 15.8021 28.2729 15.674 28.8708 15.6312L29.0844 18.1938C28.6573 18.2365 27.7177 18.3219 26.65 18.4927L26.65 18.4927Z" fill="#FFFFFF" transform="matrix(1.02439 0 0 1 574 382)"/></g></svg>