<svg width="42" height="42" xmlns="http://www.w3.org/2000/svg" xmlns:xlink="http://www.w3.org/1999/xlink" overflow="hidden"><defs><clipPath id="clip0"><rect x="574" y="176" width="42" height="42"/></clipPath></defs><g clip-path="url(#clip0)" transform="translate(-574 -176)"><path d="M584.939 185.626 587.127 185.626 587.127 186.502 584.939 186.502 584.939 185.626 584.939 185.626Z" fill="#FFFFFF"/><path d="M587.932 184.025 586.409 182.471 587.031 181.837 588.549 183.39 587.932 184.025 587.932 184.025 587.932 184.025Z" fill="#FFFFFF"/><path d="M593.252 186.117C593.252 187.566 592.076 188.741 590.626 188.741 589.176 188.741 588.001 187.565 588.002 186.115 588.002 184.666 589.177 183.491 590.627 183.491 592.077 183.491 593.252 184.667 593.252 186.117Z" fill="#FFFFFF"/><path d="M590.189 180.375 591.064 180.375 591.064 182.563 590.189 182.563 590.189 180.375 590.189 180.375Z" fill="#FFFFFF"/><path d="M594.127 185.626 596.315 185.626 596.315 186.502 594.127 186.502 594.127 185.626 594.127 185.626Z" fill="#FFFFFF"/><path d="M593.322 184.025 594.845 182.471 594.223 181.837 592.705 183.39 593.322 184.025 593.322 184.025 593.322 184.025Z" fill="#FFFFFF"/><path d="M587.932 188.152 586.409 189.71 587.031 190.34 588.549 188.786 587.932 188.152 587.932 188.152 587.932 188.152Z" fill="#FFFFFF"/><path d="M590.189 189.618 591.064 189.618 591.064 191.806 590.189 191.806 590.189 189.618 590.189 189.618Z" fill="#FFFFFF"/><path d="M593.322 188.152 594.845 189.71 594.223 190.34 592.705 188.786 593.322 188.152 593.322 188.152 593.322 188.152Z" fill="#FFFFFF"/><path d="M612.232 206.074C613.826 205.787 615.021 204.241 615.021 202.039 615.021 199.595 612.498 194.542 611.701 194.542 610.904 194.542 608.381 199.59 608.381 202.039 608.381 204.241 609.589 205.787 611.17 206.074L611.17 211 608.712 211 608.712 206.217C608.007 205.521 607.509 204.642 607.273 203.679L602.453 199.041 596.193 205.064 596.193 211 590.748 211 590.748 205.064 584.489 199.041 578.229 205.064 578.229 211 575.752 211 575.752 213.625 614.252 213.625 614.252 211 612.232 211ZM604.957 206.058 607.46 206.058 607.46 208.594 604.957 208.594ZM597.445 206.058 599.949 206.058 599.949 208.594 597.445 208.594ZM601.201 206.058 603.705 206.058 603.705 211 601.201 211ZM586.993 206.058 589.496 206.058 589.496 208.594 586.993 208.594ZM579.481 206.058 581.985 206.058 581.985 208.594 579.481 208.594ZM583.237 206.058 585.741 206.058 585.741 211 583.237 211Z" fill="#FFFFFF"/><path d="M602.453 197.858 607.077 202.304C607.073 202.216 607.069 202.128 607.069 202.039 607.075 201.594 607.123 201.152 607.213 200.716L602.453 196.125 594.056 204.212 594.995 205.015Z" fill="#FFFFFF"/><path d="M584.489 197.858 591.948 205.016 592.887 204.214 589.496 200.943 589.496 197.393 587.827 197.393 587.827 199.337 584.489 196.125 576.09 204.214 577.029 205.016 584.489 197.858Z" fill="#FFFFFF"/></g></svg>