<svg width="41" height="41" xmlns="http://www.w3.org/2000/svg" xmlns:xlink="http://www.w3.org/1999/xlink" overflow="hidden"><defs><clipPath id="clip0"><rect x="574" y="160" width="41" height="41"/></clipPath></defs><g clip-path="url(#clip0)" transform="translate(-574 -160)"><path d="M603.255 180.073C603.084 180.073 602.956 180.073 602.785 180.116 602.657 179.603 602.316 179.133 601.76 178.92L598.13 177.468 595.781 172.044 595.781 172.044C595.311 170.762 594.073 169.823 592.578 169.823 591.809 169.823 591.126 170.079 590.571 170.464L590.571 170.464 584.805 174.35C584.464 174.606 584.207 174.948 584.079 175.375L582.798 180.927C582.584 181.867 583.14 182.764 584.079 182.977 584.207 183.02 584.335 183.02 584.464 183.02 585.232 183.02 585.958 182.465 586.129 181.696L587.24 176.827 588.307 176.101C587.88 179.005 587.838 181.311 587.838 181.696L587.41 189.17 585.745 196.729C585.531 197.669 586.129 198.566 587.026 198.779 587.154 198.822 587.282 198.822 587.41 198.822 588.179 198.822 588.905 198.267 589.076 197.498L590.784 189.81C590.784 189.725 590.827 189.64 590.827 189.554L591.041 185.369 593.817 188.444 594.201 196.387C594.244 197.284 595.013 198.01 595.909 198.01 595.952 198.01 595.952 198.01 595.995 198.01 596.934 197.968 597.66 197.156 597.618 196.217L597.191 187.675C597.191 187.291 597.02 186.906 596.764 186.607L593.774 183.319 593.774 176.4C593.774 176.4 593.817 176.4 593.817 176.357L595.183 179.475C595.354 179.902 595.696 180.201 596.123 180.372L600.351 182.08C600.223 182.379 600.18 182.721 600.18 183.062 600.18 184.002 600.607 184.814 601.291 185.369 601.291 185.369 601.333 185.411 601.333 185.411 601.461 185.54 601.675 185.625 601.889 185.625 602.358 185.625 602.743 185.241 602.743 184.771 602.743 184.472 602.615 184.216 602.401 184.087 602.188 183.831 601.974 183.49 601.974 183.062 601.974 182.336 602.529 181.781 603.255 181.781 603.981 181.781 604.536 182.336 604.536 183.062L604.536 185.753 604.536 186.906 604.536 198.01C604.536 198.48 604.921 198.865 605.391 198.865 605.86 198.865 606.245 198.48 606.245 198.01L606.245 183.062C606.245 181.397 604.921 180.073 603.255 180.073Z" fill="#FFFFFF"/><path d="M598.344 165.979C598.344 167.866 596.814 169.396 594.927 169.396 593.04 169.396 591.51 167.866 591.51 165.979 591.51 164.092 593.04 162.562 594.927 162.562 596.814 162.562 598.344 164.092 598.344 165.979Z" fill="#FFFFFF"/></g></svg>