<svg width="42" height="42" xmlns="http://www.w3.org/2000/svg" xmlns:xlink="http://www.w3.org/1999/xlink" overflow="hidden"><defs><clipPath id="clip0"><rect x="577" y="244" width="42" height="42"/></clipPath></defs><g clip-path="url(#clip0)" transform="translate(-577 -244)"><path d="M609.375 266.728 613.794 262.309 616.375 264.891 616.375 257.891 609.375 257.891 611.956 260.472 607.625 264.803 600.188 272.241 593.625 265.678 580.019 279.284 581.856 281.122 593.625 269.353 600.188 275.916 609.375 266.728Z" fill="#FFFFFF"/><path d="M587.062 252.75C587.062 253.958 586.083 254.938 584.875 254.938 583.667 254.938 582.688 253.958 582.688 252.75 582.688 251.542 583.667 250.562 584.875 250.562 586.083 250.562 587.062 251.542 587.062 252.75Z" fill="#FFFFFF"/><path d="M605.949 263.998 606.387 263.561 607.389 262.559 606.172 257.09C606.135 256.896 606.03 256.722 605.875 256.6 605.351 256.189 604.759 255.873 604.125 255.668 602.982 255.277 601.742 255.277 600.599 255.668 599.965 255.874 599.373 256.189 598.849 256.6 598.697 256.725 598.593 256.898 598.551 257.09L598 259.654 598 259.654 597.427 257.09C597.387 256.896 597.28 256.723 597.125 256.6 596.601 256.189 596.009 255.873 595.375 255.668 593.579 255.088 591.612 255.437 590.125 256.6 589.974 256.725 589.869 256.898 589.828 257.09L589.25 259.571C589.25 259.571 589.25 259.571 589.25 259.571L588.681 257.09C588.638 256.897 588.53 256.724 588.375 256.6 587.851 256.189 587.258 255.874 586.625 255.668 585.482 255.277 584.242 255.277 583.099 255.668 582.466 255.875 581.874 256.19 581.349 256.6 581.197 256.725 581.093 256.898 581.051 257.09L579.66 263.443C579.535 263.932 579.831 264.43 580.32 264.554 580.332 264.557 580.344 264.56 580.356 264.562 580.404 264.567 580.452 264.567 580.5 264.562 580.918 264.572 581.285 264.284 581.375 263.876L582.688 258 582.688 258 582.688 261.106 581.375 267.625 582.688 267.625 582.688 274.139 584.438 272.389 584.438 267.625 585.312 267.625 585.312 271.514 587.062 269.764 587.062 267.625 588.375 267.625 587.062 261.111 587.062 258.048 587.062 258.048 588.375 263.762C588.414 264.216 588.794 264.564 589.25 264.562L589.25 264.562C589.659 264.56 590.011 264.275 590.099 263.876L590.125 263.688 591.403 258.074C591.403 258.074 591.403 258.074 591.403 258.074L591.403 265.411 592.369 264.44C593.052 263.756 594.16 263.756 594.844 264.439 594.845 264.439 594.845 264.44 594.846 264.44L595.812 265.372 595.812 258.079C595.812 258.079 595.812 258.079 595.812 258.079L597.125 263.88C597.217 264.287 597.583 264.573 598 264.562L598 264.562C598.41 264.562 598.765 264.276 598.853 263.876L600.166 258.074C600.166 258.074 600.166 258.074 600.166 258.074L600.166 269.756 600.166 269.756 601.916 268.006 601.916 265 602.791 265 602.791 267.148 604.541 265.398 604.541 258.079C604.541 258.079 604.541 258.079 604.541 258.079L605.919 264.003Z" fill="#FFFFFF"/><path d="M604.558 252.75C604.558 253.958 603.579 254.938 602.371 254.938 601.162 254.938 600.183 253.958 600.183 252.75 600.183 251.542 601.162 250.562 602.371 250.562 603.579 250.562 604.558 251.542 604.558 252.75Z" fill="#FFFFFF"/><path d="M595.795 252.75C595.795 253.958 594.816 254.938 593.607 254.938 592.399 254.938 591.42 253.958 591.42 252.75 591.42 251.542 592.399 250.562 593.607 250.562 594.816 250.562 595.795 251.542 595.795 252.75Z" fill="#FFFFFF"/></g></svg>