<svg width="41" height="41" xmlns="http://www.w3.org/2000/svg" xmlns:xlink="http://www.w3.org/1999/xlink" overflow="hidden"><defs><clipPath id="clip0"><rect x="536" y="246" width="41" height="41"/></clipPath></defs><g clip-path="url(#clip0)" transform="translate(-536 -246)"><path d="M556.5 250.271C547.531 250.271 540.271 257.531 540.271 266.5 540.271 275.469 547.531 282.729 556.5 282.729 565.469 282.729 572.729 275.469 572.729 266.5 572.729 257.531 565.469 250.271 556.5 250.271ZM541.979 266.5C541.979 262.699 543.431 259.282 545.823 256.677 546.207 256.891 546.592 257.232 546.677 257.531L546.677 260.222C546.677 260.393 546.72 260.606 546.848 260.734L549.667 264.365 549.88 264.151C550.008 264.023 550.051 263.809 549.966 263.639L549.453 262.784C549.24 262.443 549.581 262.016 549.966 262.144 550.094 262.186 550.179 262.272 550.222 262.357L551.631 265.133C551.802 265.432 552.058 265.689 552.357 265.774L554.236 266.415C554.365 266.457 554.45 266.543 554.493 266.628L554.621 266.842C554.749 267.141 555.048 267.311 555.39 267.311L555.902 267.311C556.03 267.311 556.158 267.397 556.244 267.482L556.799 268.294C556.927 268.465 557.098 268.593 557.311 268.635L558.208 268.849C558.465 268.892 558.593 269.191 558.507 269.404 558.507 269.404 557.824 270.087 557.824 271.07 557.824 273.889 560.386 274.7 560.386 275.341 560.386 277.092 560.13 279.526 560.002 280.466 558.892 280.722 557.739 280.893 556.543 280.893 548.514 281.021 541.979 274.486 541.979 266.5ZM561.967 279.953C562.906 279.142 564.486 277.775 565.042 277.177 565.768 276.366 565.896 275.042 565.896 275.042 565.896 275.042 568.885 274.23 568.885 272.052 568.885 270.557 565.896 269.917 565.896 269.917 565.383 268.251 562.864 267.354 560.771 267.354 560.301 267.354 558.635 268.208 558.635 268.208L557.781 267.781 557.781 266.5C557.781 266.244 557.61 266.073 557.354 266.073L556.5 266.073 556.5 264.792C556.5 264.535 556.329 264.365 556.073 264.365L555.646 264.365 555.176 264.664C554.749 264.962 554.151 264.792 553.938 264.322 553.938 264.322 553.51 263.724 553.51 263.468 553.51 261.631 555.646 261.759 555.646 261.759L556.585 261.759C556.799 261.759 556.97 261.888 557.013 262.101L557.269 263.169C557.311 263.34 557.482 263.51 557.696 263.51L557.867 263.51C558.08 263.51 558.251 263.382 558.294 263.169L558.593 261.589C558.635 261.46 558.678 261.332 558.764 261.204L559.959 259.709C560.216 259.41 560.557 259.24 560.942 259.24L562.052 259.24C562.308 259.24 562.479 259.069 562.479 258.812L562.479 258.385 562.351 258.257C562.095 258.001 562.266 257.531 562.65 257.531L562.906 257.531C563.162 257.531 563.333 257.702 563.333 257.958 563.333 258.215 563.504 258.385 563.76 258.385L564.188 258.385 564.444 257.275C564.529 256.891 564.358 256.549 564.059 256.335L560.429 254.157C560.386 254.115 560.301 254.115 560.216 254.115L559.49 254.115C559.02 254.115 558.635 254.499 558.635 254.969L558.635 255.396C558.635 255.652 558.465 255.823 558.208 255.823L557.781 255.823 557.354 255.396 556.073 255.396C555.817 255.396 555.646 255.225 555.646 254.969L555.646 253.901C555.646 253.773 555.689 253.645 555.817 253.559L558.55 252.406 558.977 253.132C559.062 253.218 559.148 253.26 559.276 253.26L560.344 253.26C560.6 253.26 560.771 253.09 560.771 252.833L560.771 252.62C566.707 254.456 571.021 259.966 571.021 266.5 571.021 272.565 567.263 277.775 561.967 279.953Z" fill="#FFFFFF"/><path d="M561.753 264.706 559.703 264.023C559.532 263.98 559.404 263.98 559.233 264.023L557.781 264.365C557.653 264.45 557.61 264.621 557.781 264.792L559.746 264.792C559.874 264.792 559.959 264.792 560.045 264.834L561.54 265.432C561.796 265.518 562.052 265.347 562.052 265.091 562.052 264.92 561.924 264.749 561.753 264.706Z" fill="#FFFFFF"/></g></svg>