<svg width="42" height="42" xmlns="http://www.w3.org/2000/svg" xmlns:xlink="http://www.w3.org/1999/xlink" overflow="hidden"><defs><clipPath id="clip0"><rect x="548" y="255" width="42" height="42"/></clipPath></defs><g clip-path="url(#clip0)" transform="translate(-548 -255)"><path d="M584.969 267.25C584.969 268.7 583.794 269.875 582.344 269.875 580.894 269.875 579.719 268.7 579.719 267.25 579.719 265.8 580.894 264.625 582.344 264.625 583.794 264.625 584.969 265.8 584.969 267.25Z" fill="#FFFFFF"/><path d="M587.769 277.794 586.456 273.812 586.019 272.544C585.975 272.413 585.931 272.325 585.844 272.194 585.144 271.45 584.225 270.969 583.175 270.794 582.869 270.75 582.606 270.75 582.344 270.75 582.081 270.75 581.819 270.75 581.6 270.794 580.55 270.969 579.631 271.45 578.931 272.194 578.844 272.281 578.756 272.413 578.756 272.544L578.319 273.812 578.013 274.731 577.662 273.812 577.225 272.544C577.181 272.413 577.138 272.325 577.05 272.194 576.35 271.45 575.431 270.969 574.381 270.794 574.119 270.75 573.856 270.75 573.594 270.75 573.331 270.75 573.069 270.75 572.85 270.794 571.8 270.969 570.881 271.45 570.181 272.194 570.094 272.281 570.006 272.413 570.006 272.544L569.569 273.812 569.263 274.731 568.912 273.812 568.475 272.544C568.431 272.413 568.388 272.325 568.3 272.194 567.6 271.45 566.681 270.969 565.631 270.794 565.369 270.75 565.106 270.75 564.844 270.75 564.581 270.75 564.319 270.75 564.1 270.794 563.05 270.969 562.131 271.45 561.431 272.194 561.344 272.281 561.256 272.413 561.256 272.544L560.819 273.812 560.513 274.731 560.162 273.812 559.725 272.544C559.681 272.413 559.638 272.325 559.55 272.194 558.85 271.45 557.931 270.969 556.881 270.794 556.575 270.75 556.356 270.75 556.094 270.75 555.831 270.75 555.569 270.75 555.35 270.794 554.3 270.969 553.381 271.45 552.681 272.194 552.594 272.281 552.506 272.413 552.506 272.544L552.069 273.812 550.756 277.794C550.581 278.319 550.8 278.931 551.325 279.194 551.5 279.281 551.631 279.281 551.806 279.281 552.244 279.281 552.681 278.975 552.856 278.538L553.556 276.394 553.556 278.581 552.244 282.081 553.556 282.081 553.556 286.019 555.744 286.019 555.744 282.081 556.619 282.081 556.619 286.019 558.806 286.019 558.806 282.081 560.119 282.081 558.806 278.494 558.806 276.35 559.506 278.494C559.638 278.931 560.075 279.237 560.556 279.237 560.556 279.237 560.556 279.237 560.556 279.237 560.556 279.237 560.556 279.237 560.556 279.237L560.556 279.237 560.556 279.237C560.994 279.237 561.431 278.931 561.606 278.494L562.306 276.35 562.306 286.062 564.494 286.062 564.494 279.5 565.369 279.5 565.369 286.062 567.556 286.062 567.556 276.394 568.256 278.538C568.431 279.019 568.825 279.281 569.306 279.281L569.306 279.281C569.306 279.281 569.306 279.281 569.306 279.281 569.744 279.281 570.181 278.975 570.356 278.538L571.056 276.394 571.056 278.538 569.744 282.125 571.056 282.125 571.056 286.062 573.244 286.062 573.244 282.125 574.119 282.125 574.119 286.062 576.306 286.062 576.306 282.125 577.619 282.125 576.306 278.625 576.306 276.438 577.006 278.581C577.138 279.019 577.575 279.325 578.056 279.325 578.056 279.325 578.056 279.325 578.056 279.325 578.056 279.325 578.056 279.325 578.056 279.325 578.056 279.325 578.056 279.325 578.056 279.325 578.056 279.325 578.056 279.325 578.056 279.325 578.494 279.325 578.931 279.019 579.106 278.581L579.806 276.438 579.806 286.062 581.994 286.062 581.994 279.5 582.869 279.5 582.869 286.062 585.056 286.062 585.056 276.394 585.756 278.538C585.888 278.975 586.325 279.281 586.806 279.281 586.981 279.281 587.112 279.237 587.287 279.194 587.725 278.931 587.944 278.319 587.769 277.794Z" fill="#FFFFFF"/><path d="M558.719 267.25C558.719 268.7 557.544 269.875 556.094 269.875 554.644 269.875 553.469 268.7 553.469 267.25 553.469 265.8 554.644 264.625 556.094 264.625 557.544 264.625 558.719 265.8 558.719 267.25Z" fill="#FFFFFF"/><path d="M576.219 267.25C576.219 268.7 575.044 269.875 573.594 269.875 572.144 269.875 570.969 268.7 570.969 267.25 570.969 265.8 572.144 264.625 573.594 264.625 575.044 264.625 576.219 265.8 576.219 267.25Z" fill="#FFFFFF"/><path d="M567.469 267.25C567.469 268.7 566.294 269.875 564.844 269.875 563.394 269.875 562.219 268.7 562.219 267.25 562.219 265.8 563.394 264.625 564.844 264.625 566.294 264.625 567.469 265.8 567.469 267.25Z" fill="#FFFFFF"/></g></svg>