<svg width="50" height="49" xmlns="http://www.w3.org/2000/svg" xmlns:xlink="http://www.w3.org/1999/xlink" overflow="hidden"><defs><clipPath id="clip0"><rect x="540" y="313" width="50" height="49"/></clipPath></defs><g clip-path="url(#clip0)" transform="translate(-540 -313)"><path d="M24.5 11.1271 31.85 18.5281 33.2792 17.099 24.5 8.67708 15.5167 17.2521 16.9458 18.6812Z" fill="#FFFFFF" transform="matrix(1.02041 0 0 1 540 313)"/><path d="M40.8333 29.5531 36.75 29.5531 36.75 25.4698 40.8333 25.4698 40.8333 29.5531ZM40.8333 35.6781 36.75 35.6781 36.75 31.5948 40.8333 31.5948 40.8333 35.6781ZM34.7083 29.5531 30.625 29.5531 30.625 25.4698 34.7083 25.4698 34.7083 29.5531ZM34.7083 35.6781 30.625 35.6781 30.625 31.5948 34.7083 31.5948 34.7083 35.6781ZM28.0729 29.5531 20.9271 29.5531 20.9271 27.5115 28.0729 27.5115 28.0729 29.5531ZM24.5 19.8552C25.3677 19.8552 26.0313 20.5188 26.0313 21.3865 26.0313 22.2542 25.3677 22.9177 24.5 22.9177 23.6323 22.9177 22.9688 22.2542 22.9688 21.3865 22.9688 20.5188 23.6323 19.8552 24.5 19.8552ZM18.375 29.5531 14.2917 29.5531 14.2917 25.4698 18.375 25.4698 18.375 29.5531ZM18.375 35.6781 14.2917 35.6781 14.2917 31.5948 18.375 31.5948 18.375 35.6781ZM12.25 29.5531 8.16667 29.5531 8.16667 25.4698 12.25 25.4698 12.25 29.5531ZM12.25 35.6781 8.16667 35.6781 8.16667 31.5948 12.25 31.5948 12.25 35.6781ZM30.625 22.9177 30.625 19.8552 24.5 13.7302 18.375 19.8552 18.375 22.9177 6.125 22.9177 6.125 40.2719 20.9271 40.2719 20.9271 34.6573C20.9271 33.2281 21.9479 31.5948 24.5 31.5948 27.0521 31.5948 28.0729 33.2281 28.0729 34.6573L28.0729 40.2719 42.875 40.2719 42.875 22.9177 30.625 22.9177Z" fill="#FFFFFF" transform="matrix(1.02041 0 0 1 540 313)"/></g></svg>