<svg width="42" height="42" xmlns="http://www.w3.org/2000/svg" xmlns:xlink="http://www.w3.org/1999/xlink" overflow="hidden"><defs><clipPath id="clip0"><rect x="546" y="245" width="42" height="42"/></clipPath></defs><g clip-path="url(#clip0)" transform="translate(-546 -245)"><path d="M550.375 249.812 550.375 281.312 582.75 281.312 582.75 249.812ZM580.125 264.25 567.875 264.25 567.875 252.438 580.125 252.438ZM565.25 252.438 565.25 264.25 553 264.25 553 252.438ZM553 266.875 565.25 266.875 565.25 278.688 553 278.688ZM567.875 278.688 567.875 266.875 580.125 266.875 580.125 278.688Z" fill="#FFFFFF"/><path d="M563.062 257.25 560 257.25 560 254.188 558.25 254.188 558.25 257.25 555.188 257.25 555.188 259 558.25 259 558.25 262.062 560 262.062 560 259 563.062 259 563.062 257.25Z" fill="#FFFFFF"/><path d="M562.529 270.397 561.291 269.159 559.125 271.324 556.959 269.159 555.721 270.397 557.887 272.562 555.721 274.728 556.959 275.966 559.125 273.801 561.291 275.966 562.529 274.728 560.363 272.562 562.529 270.397Z" fill="#FFFFFF"/><path d="M570.062 259 570.062 257.25 577.938 257.25 577.938 259Z" fill="#FFFFFF"/><path d="M570.062 273.875 570.062 272.125 577.938 272.125 577.938 273.875Z" fill="#FFFFFF"/><path d="M574.875 270.375C574.875 270.858 574.483 271.25 574 271.25 573.517 271.25 573.125 270.858 573.125 270.375 573.125 269.892 573.517 269.5 574 269.5 574.483 269.5 574.875 269.892 574.875 270.375Z" fill="#FFFFFF"/><path d="M574.875 275.625C574.875 276.108 574.483 276.5 574 276.5 573.517 276.5 573.125 276.108 573.125 275.625 573.125 275.142 573.517 274.75 574 274.75 574.483 274.75 574.875 275.142 574.875 275.625Z" fill="#FFFFFF"/></g></svg>