<svg width="41" height="42" xmlns="http://www.w3.org/2000/svg" xmlns:xlink="http://www.w3.org/1999/xlink" overflow="hidden"><defs><clipPath id="clip0"><rect x="545" y="126" width="41" height="42"/></clipPath></defs><g clip-path="url(#clip0)" transform="translate(-545 -126)"><path d="M36.7292 9.39583 36.7292 30.3229 4.27083 30.3229 4.27083 9.39583 1.70833 9.39583 1.70833 33.3125 16.6562 33.3125C16.6562 34.0385 17.2115 34.5938 17.9375 34.5938L23.0625 34.5938C23.7885 34.5938 24.3438 34.0385 24.3438 33.3125L39.2917 33.3125 39.2917 9.39583 36.7292 9.39583Z" fill="#FFFFFF" transform="matrix(1 0 0 1.02439 545 126)"/><path d="M35.0208 6.83333 5.97917 6.83333 5.97917 28.6146 35.0208 28.6146 35.0208 6.83333ZM8.54167 9.39583 19.6458 9.39583 19.6458 26.0521 8.54167 26.0521 8.54167 9.39583ZM32.4583 26.0521 21.3542 26.0521 21.3542 9.39583 32.4583 9.39583 32.4583 26.0521Z" fill="#FFFFFF" transform="matrix(1 0 0 1.02439 545 126)"/><path d="M23.9167 13.6667 29.8958 13.6667 29.8958 14.9479 23.9167 14.9479Z" fill="#FFFFFF" transform="matrix(1 0 0 1.02439 545 126)"/><path d="M23.9167 16.2292 29.8958 16.2292 29.8958 17.5104 23.9167 17.5104Z" fill="#FFFFFF" transform="matrix(1 0 0 1.02439 545 126)"/><path d="M23.9167 18.7917 28.0594 18.7917 28.0594 20.0729 23.9167 20.0729Z" fill="#FFFFFF" transform="matrix(1 0 0 1.02439 545 126)"/></g></svg>