<svg width="42" height="41" xmlns="http://www.w3.org/2000/svg" xmlns:xlink="http://www.w3.org/1999/xlink" overflow="hidden"><defs><clipPath id="clip0"><rect x="546" y="291" width="42" height="41"/></clipPath></defs><g clip-path="url(#clip0)" transform="translate(-546 -291)"><path d="M5.81835 10.7415 18.1355 10.7415 18.1355 23.0587 5.81835 23.0587Z" fill="#FFFFFF" transform="matrix(0.988148 -0.257632 0.263915 0.964621 541.956 294.655)"/><path d="M23.4443 20.6798 19.3511 35.4347 34.2734 31.5051 23.4443 20.6798Z" fill="#FFFFFF" transform="matrix(1.02439 0 0 1 546 291)"/><path d="M36.4345 12.1719C36.4345 15.8279 33.4707 18.7917 29.8147 18.7917 26.1587 18.7917 23.1949 15.8279 23.1949 12.1719 23.1949 8.51587 26.1587 5.55208 29.8147 5.55208 33.4707 5.55208 36.4345 8.51587 36.4345 12.1719Z" fill="#FFFFFF" transform="matrix(1.02439 0 0 1 546 291)"/></g></svg>