<svg width="41" height="41" xmlns="http://www.w3.org/2000/svg" xmlns:xlink="http://www.w3.org/1999/xlink" overflow="hidden"><defs><clipPath id="clip0"><rect x="548" y="180" width="41" height="41"/></clipPath></defs><g clip-path="url(#clip0)" transform="translate(-548 -180)"><path d="M567.479 209.101C567.479 210.172 566.611 211.04 565.54 211.04 564.469 211.04 563.601 210.172 563.601 209.101 563.601 208.031 564.469 207.163 565.54 207.163 566.611 207.163 567.479 208.031 567.479 209.101Z" fill="#FFFFFF"/><path d="M569.354 215.448 569.354 213.509C569.348 213.207 569.207 212.923 568.97 212.736 568.413 212.306 567.775 211.993 567.095 211.813 566.581 211.656 566.047 211.575 565.51 211.574 564.974 211.583 564.441 211.663 563.926 211.813 563.253 212.013 562.619 212.325 562.051 212.736 561.814 212.923 561.673 213.207 561.667 213.509L561.667 215.448Z" fill="#FFFFFF"/><path d="M575.961 209.101C575.961 210.172 575.093 211.04 574.022 211.04 572.951 211.04 572.083 210.172 572.083 209.101 572.083 208.031 572.951 207.163 574.022 207.163 575.093 207.163 575.961 208.031 575.961 209.101Z" fill="#FFFFFF"/><path d="M577.896 215.448 577.896 213.509C577.89 213.207 577.749 212.923 577.511 212.736 576.954 212.306 576.317 211.993 575.637 211.813 575.123 211.656 574.589 211.575 574.052 211.574 573.516 211.583 572.983 211.663 572.468 211.813 571.795 212.013 571.161 212.325 570.593 212.736 570.356 212.923 570.215 213.207 570.208 213.509L570.208 215.448Z" fill="#FFFFFF"/><path d="M584.503 209.101C584.503 210.172 583.635 211.04 582.564 211.04 581.493 211.04 580.625 210.172 580.625 209.101 580.625 208.031 581.493 207.163 582.564 207.163 583.635 207.163 584.503 208.031 584.503 209.101Z" fill="#FFFFFF"/><path d="M586.438 215.448 586.438 213.509C586.431 213.207 586.29 212.923 586.053 212.736 585.496 212.306 584.858 211.993 584.178 211.813 583.665 211.656 583.131 211.575 582.594 211.574 582.057 211.583 581.524 211.663 581.009 211.813 580.337 212.013 579.703 212.325 579.134 212.736 578.897 212.923 578.756 213.207 578.75 213.509L578.75 215.448Z" fill="#FFFFFF"/><path d="M559.711 191.173C559.711 192.574 558.575 193.709 557.174 193.709 555.773 193.709 554.637 192.574 554.637 191.173 554.637 189.771 555.773 188.636 557.174 188.636 558.575 188.636 559.711 189.771 559.711 191.173Z" fill="#FFFFFF"/><path d="M572.134 190.194C571.883 189.947 571.48 189.947 571.229 190.194L565.711 195.712C565.27 195.588 564.796 195.708 564.468 196.028 564.379 196.118 562.786 198.723 562.786 198.723L562.307 196.686C562.244 196.423 562.113 196.182 561.927 195.986 561.14 195.349 560.234 194.876 559.262 194.593 558.575 194.446 557.876 194.362 557.174 194.341 556.465 194.352 555.761 194.459 555.081 194.658 554.1 194.915 553.191 195.391 552.42 196.05 552.233 196.245 552.102 196.487 552.04 196.75 552.04 196.75 550.199 204.48 550.199 204.609 550.199 205.316 550.773 205.89 551.481 205.89 552.048 205.875 552.538 205.489 552.685 204.942L554.018 199.428 554.018 217.156 556.542 217.156 556.542 205.749 557.823 205.749 557.823 217.156 560.343 217.156 560.343 199.347 560.812 201.354C560.845 201.493 560.937 201.61 561.064 201.674 561.556 202.051 562.154 202.262 562.773 202.277 563.176 202.333 563.575 202.152 563.798 201.811L566.403 197.54C566.57 197.278 566.632 196.962 566.578 196.656L572.13 191.104C572.382 190.854 572.384 190.447 572.134 190.194Z" fill="#FFFFFF"/><path d="M580.885 184.271 559.958 184.271C559.015 184.271 558.25 185.036 558.25 185.979L558.25 187.517C558.903 187.694 559.494 188.049 559.958 188.542L559.958 185.979 580.885 185.979 580.885 200.073 566.309 200.073 565.267 201.781 580.885 201.781C581.829 201.781 582.594 201.016 582.594 200.073L582.594 185.979C582.594 185.036 581.829 184.271 580.885 184.271Z" fill="#FFFFFF"/></g></svg>